<svg width="185" height="40" viewBox="0 0 185 40" fill="none" xmlns="http://www.w3.org/2000/svg">
<path d="M15.5403 18.1355C15.1909 17.2656 14.5811 16.6336 13.6963 16.2395C12.8189 15.8454 11.5697 15.6446 9.96366 15.6446C8.35757 15.6446 7.07864 15.838 6.20868 16.2172C5.33872 16.6038 4.90746 17.1689 4.90746 17.9125C4.90746 18.485 5.04131 18.9088 5.31643 19.1914C5.59154 19.474 6.04512 19.7193 6.69201 19.9201C7.33891 20.1209 8.25347 20.3067 9.44316 20.4778L11.9341 20.8495C14.0904 21.1693 15.7634 21.5708 16.9531 22.0541C18.1428 22.5374 18.9904 23.1471 19.5035 23.8758C20.0091 24.6045 20.2619 25.5414 20.2619 26.679C20.2619 28.6866 19.4366 30.2035 17.7859 31.2296C16.1352 32.2557 13.7037 32.7762 10.4841 32.7762C7.26453 32.7762 4.80336 32.2408 3.10062 31.1775C1.40531 30.1142 0.371778 28.4784 0 26.2701H4.34979C4.66952 27.3333 5.30898 28.1066 6.26074 28.5899C7.21249 29.0733 8.59552 29.3112 10.4098 29.3112C14.0309 29.3112 15.8378 28.5082 15.8378 26.8946C15.8378 26.1734 15.5031 25.6455 14.8339 25.296C14.1647 24.9465 12.923 24.6417 11.1162 24.3665L8.62524 23.9948C6.54328 23.6973 4.92234 23.3033 3.75495 22.8051C2.58757 22.3069 1.76965 21.6749 1.28634 20.909C0.803027 20.1432 0.557668 19.1616 0.557668 17.972C0.557668 16.1874 1.39043 14.7895 3.07087 13.7709C4.74387 12.7522 7.04148 12.2466 9.96366 12.2466C12.8858 12.2466 15.0867 12.6704 16.6408 13.5255C18.1874 14.3806 19.2358 15.7636 19.786 17.6745L15.5478 18.1207L15.5403 18.1355Z" fill="white"/>
<path d="M24.9468 39.4011V12.8561H29.3338V16.0534C30.226 14.8637 31.3934 13.9342 32.8285 13.265C34.2635 12.5958 35.8622 12.2612 37.6244 12.2612C39.5056 12.2612 41.1712 12.6702 42.6286 13.4881C44.0785 14.306 45.2161 15.4808 46.0489 17.02C46.8817 18.5592 47.2907 20.3437 47.2907 22.3736C47.2907 24.4035 46.8817 26.136 46.0638 27.7049C45.2459 29.2812 44.0711 30.5155 42.5319 31.4227C40.9927 32.3298 39.2082 32.7834 37.1783 32.7834C33.7802 32.7834 31.1927 31.6458 29.4081 29.363V39.4011H24.9468ZM29.3709 23.0428C29.3709 24.7753 29.9509 26.2624 31.1183 27.5041C32.2336 28.6938 33.8323 29.2887 35.9142 29.2887C38.1449 29.2887 39.8328 28.7087 40.9704 27.5413C42.1081 26.374 42.6806 24.6786 42.6806 22.448C42.6806 20.3437 42.1081 18.7004 40.9556 17.5256C39.803 16.3508 38.197 15.756 36.1373 15.756C35.193 15.756 34.2784 15.9344 33.3862 16.2987C32.4939 16.6556 31.7354 17.1464 31.1183 17.7635C30.5458 18.3361 30.1145 18.9755 29.8171 19.6968C29.5196 20.418 29.3709 21.1616 29.3709 21.9275V23.0428Z" fill="white"/>
<path d="M67.1433 32.1887V29.4003C66.0056 30.538 64.7639 31.3782 63.4255 31.9135C62.0871 32.4489 60.5107 32.7166 58.7039 32.7166C56.1981 32.7166 54.2649 32.2035 52.9042 31.17C51.5434 30.1439 50.8594 28.6865 50.8594 26.7979C50.8594 24.6936 51.7442 23.1247 53.5139 22.0912C55.2835 21.0651 58.0793 20.4851 61.8938 20.3587L67.0243 20.21V19.5779C67.0243 16.9532 65.2918 15.6371 61.8194 15.6371C60.1315 15.6371 58.8303 15.8379 57.9157 16.2542C57.0011 16.6632 56.4063 17.2878 56.1312 18.128L52.1532 17.6819C52.5993 15.823 53.618 14.4548 55.2017 13.57C56.7855 12.6926 59.0459 12.2539 61.9681 12.2539C65.1134 12.2539 67.4556 12.8711 68.9799 14.1128C70.5041 15.3545 71.2626 17.2506 71.2626 19.801V32.1812H67.1358L67.1433 32.1887ZM67.0317 23.1545L61.9755 23.3032C59.6482 23.3775 57.9678 23.6601 56.9417 24.1583C55.9156 24.6564 55.3951 25.4074 55.3951 26.4261C55.3951 27.3407 55.7891 28.0545 56.5847 28.5675C57.3804 29.0732 58.4808 29.326 59.8936 29.326C60.9569 29.326 61.983 29.1698 62.957 28.865C63.9385 28.5527 64.7862 28.114 65.5 27.5489C66.5187 26.783 67.0243 25.7495 67.0243 24.4631V23.1619L67.0317 23.1545Z" fill="white"/>
<path d="M97.1826 25.4225C96.8108 27.7795 95.7475 29.5938 93.9853 30.8727C92.2231 32.1516 89.918 32.7911 87.0702 32.7911C83.5755 32.7911 80.8541 31.8914 78.906 30.0994C76.9578 28.3 75.9912 25.7942 75.9912 22.5746C75.9912 20.515 76.4299 18.7156 77.3073 17.1615C78.1847 15.6149 79.4711 14.4104 81.1515 13.5553C82.8394 12.7002 84.8321 12.2764 87.1371 12.2764C89.8139 12.2764 91.9851 12.8489 93.6581 14.0014C95.3311 15.1539 96.387 16.8121 96.8331 18.9684L92.2974 19.5632C91.6059 17.0351 89.866 15.7711 87.0925 15.7711C85.0329 15.7711 83.4342 16.3585 82.2966 17.5408C81.1589 18.7156 80.5864 20.3737 80.5864 22.5077C80.5864 24.6417 81.1515 26.3965 82.2817 27.5639C83.4119 28.7313 85.0403 29.3113 87.1669 29.3113C90.2675 29.3113 92.0966 28.0249 92.6692 25.4448H97.1677L97.1826 25.4225Z" fill="white"/>
<path d="M105.102 23.6377C105.154 25.4222 105.778 26.8424 106.975 27.8908C108.18 28.9466 109.756 29.4671 111.719 29.4671C113.258 29.4671 114.515 29.2143 115.489 28.7087C116.471 28.2031 117.147 27.4521 117.519 26.4557H121.943C121.4 28.5897 120.278 30.1735 118.582 31.2145C116.887 32.2555 114.582 32.776 111.682 32.776C108.284 32.776 105.615 31.8763 103.674 30.0843C101.726 28.2849 100.759 25.8312 100.759 22.7082C100.759 20.6783 101.198 18.8714 102.075 17.2951C102.953 15.7188 104.217 14.4919 105.868 13.5996C107.518 12.7074 109.444 12.2612 111.645 12.2612C114.991 12.2612 117.586 13.1238 119.437 14.8414C121.281 16.5664 122.211 18.9756 122.211 22.0687V23.6302H105.109L105.102 23.6377ZM117.928 20.6634C117.876 19.0276 117.303 17.7561 116.196 16.8564C115.095 15.9493 113.563 15.4957 111.608 15.4957C109.846 15.4957 108.388 15.9567 107.236 16.8936C106.083 17.823 105.407 19.0796 105.206 20.6709H117.921L117.928 20.6634Z" fill="white"/>
<path d="M127.074 39.4011V12.8561H131.461V16.0534C132.353 14.8637 133.52 13.9342 134.956 13.265C136.391 12.5958 137.989 12.2612 139.751 12.2612C141.633 12.2612 143.306 12.6702 144.748 13.4881C146.198 14.306 147.336 15.4808 148.169 17.02C149.001 18.5592 149.41 20.3437 149.41 22.3736C149.41 24.4035 149.001 26.136 148.183 27.7049C147.366 29.2812 146.191 30.5155 144.652 31.4227C143.112 32.3298 141.328 32.7834 139.298 32.7834C135.9 32.7834 133.312 31.6458 131.528 29.363V39.4011H127.066H127.074ZM131.498 23.0428C131.498 24.7753 132.078 26.2624 133.245 27.5041C134.361 28.6938 135.959 29.2887 138.041 29.2887C140.272 29.2887 141.96 28.7087 143.097 27.5413C144.235 26.374 144.808 24.6786 144.808 22.448C144.808 20.3437 144.235 18.7004 143.075 17.5256C141.923 16.3508 140.317 15.756 138.264 15.756C137.32 15.756 136.405 15.9344 135.513 16.2987C134.621 16.6631 133.863 17.1464 133.245 17.7635C132.673 18.3361 132.242 18.9755 131.944 19.6968C131.647 20.418 131.498 21.1616 131.498 21.9275V23.0428Z" fill="white"/>
<path d="M154.288 32.1884V12.856H158.749V32.1884H154.288Z" fill="white"/>
<path d="M184.811 25.4225C184.439 27.7795 183.376 29.5938 181.614 30.8727C179.851 32.1516 177.546 32.7911 174.699 32.7911C171.204 32.7911 168.483 31.8914 166.542 30.0994C164.594 28.3 163.62 25.7942 163.62 22.5746C163.62 20.515 164.058 18.7156 164.943 17.1615C165.821 15.6149 167.107 14.4104 168.787 13.5553C170.468 12.7002 172.468 12.2764 174.773 12.2764C177.45 12.2764 179.628 12.8489 181.301 14.0014C182.974 15.1539 184.03 16.8121 184.484 18.9684L179.948 19.5632C179.257 17.0351 177.517 15.7711 174.743 15.7711C172.684 15.7711 171.085 16.3585 169.947 17.5408C168.81 18.7156 168.237 20.3737 168.237 22.5077C168.237 24.6417 168.802 26.3965 169.932 27.5639C171.063 28.7313 172.691 29.3113 174.825 29.3113C177.926 29.3113 179.755 28.0249 180.327 25.4448H184.826L184.811 25.4225Z" fill="white"/>
<path d="M156.519 0L157.82 4.00776H162.028L158.623 6.47637L159.924 10.4842L156.519 8.0081L153.113 10.4842L154.414 6.47637L151.009 4.00776H155.217L156.519 0Z" fill="#DFFE01"/>
</svg>
