<svg width="201" height="96" viewBox="0 0 201 96" fill="none" xmlns="http://www.w3.org/2000/svg">
<path d="M35.5014 0.56604L38.2778 9.31259L45.9444 4.42606L42.5358 12.9379L51.5 14.1991L43.4993 18.4946L49.5701 25.3126L40.7229 23.3812L41.057 32.566L35.5014 25.3126L29.943 32.566L30.2799 23.3812L21.4299 25.3126L27.5007 18.4946L19.5 14.1991L28.467 12.9379L25.0584 4.42606L32.7222 9.31259L35.5014 0.56604Z" fill="#734BFB"/>
<path d="M101.522 30.3573L101.471 16.2058L92.3775 27.0502L101.436 16.1765L87.5 18.636L101.429 16.1301L89.1706 9.05683L101.451 16.091L96.6078 2.792L101.495 16.0764L106.331 2.7749L101.537 16.091L113.793 9.01287L101.561 16.1301L115.5 18.5847L101.554 16.1765L110.652 27.016L101.517 16.2058L101.522 30.3573Z" fill="white" stroke="#FF3CE6" stroke-width="3" stroke-miterlimit="10"/>
<path d="M171.551 15.5559C169.328 15.5559 167.51 13.7378 167.51 11.5155V1.56604H165.827V11.5155C165.827 13.7378 164.008 15.5559 161.786 15.5559H151.5V17.5761H161.786C164.008 17.5761 165.827 19.3943 165.827 21.6165V31.566H167.51V21.6165C167.51 19.3943 169.328 17.5761 171.551 17.5761H181.5V15.5559H171.551Z" fill="#33C87E"/>
<path d="M16.9003 72.2885C16.5202 71.3424 15.8571 70.655 14.8949 70.2265C13.9407 69.7979 12.5822 69.5796 10.8356 69.5796C9.08895 69.5796 7.6981 69.7898 6.75201 70.2022C5.80591 70.6227 5.33691 71.2373 5.33691 72.0459C5.33691 72.6685 5.48248 73.1294 5.78167 73.4367C6.08086 73.744 6.57413 74.0109 7.27763 74.2292C7.98114 74.4475 8.97573 74.6497 10.2695 74.8356L12.9784 75.24C15.3235 75.5877 17.1429 76.0243 18.4367 76.5499C19.7305 77.0755 20.6523 77.7386 21.2102 78.5311C21.7601 79.3235 22.0351 80.3424 22.0351 81.5796C22.0351 83.7629 21.1375 85.4125 19.3423 86.5284C17.5472 87.6443 14.903 88.2103 11.4016 88.2103C7.90026 88.2103 5.22371 87.6281 3.37196 86.4718C1.52829 85.3154 0.404313 83.5364 0 81.1348H4.73044C5.07815 82.2912 5.77358 83.1321 6.80862 83.6577C7.84366 84.1833 9.34772 84.4421 11.3208 84.4421C15.2588 84.4421 17.2237 83.5688 17.2237 81.8141C17.2237 81.0297 16.8598 80.4556 16.1321 80.0755C15.4043 79.6955 14.0539 79.3639 12.0889 79.0647L9.38004 78.6604C7.11589 78.337 5.35309 77.9084 4.08355 77.3666C2.81401 76.8248 1.92451 76.1375 1.39891 75.3046C0.8733 74.4718 0.606469 73.4044 0.606469 72.1106C0.606469 70.1699 1.51211 68.6496 3.3396 67.5418C5.15901 66.434 7.65768 65.8842 10.8356 65.8842C14.0135 65.8842 16.407 66.3451 18.097 67.275C19.779 68.2049 20.9191 69.7089 21.5175 71.7871L16.9083 72.2723L16.9003 72.2885Z" fill="white"/>
<path d="M27.1296 95.4151V66.5472H31.9005V70.0243C32.8709 68.7305 34.1404 67.7197 35.7011 66.9919C37.2617 66.2642 39.0003 65.9003 40.9167 65.9003C42.9625 65.9003 44.7739 66.345 46.3588 67.2345C47.9356 68.124 49.1728 69.4016 50.0784 71.0755C50.9841 72.7493 51.4288 74.69 51.4288 76.8976C51.4288 79.1051 50.9841 80.9892 50.0946 82.6954C49.2051 84.4097 47.9275 85.752 46.2536 86.7386C44.5798 87.7251 42.6391 88.2183 40.4315 88.2183C36.7361 88.2183 33.9221 86.9811 31.9814 84.4987V95.4151H27.1296ZM31.941 77.6253C31.941 79.5094 32.5717 81.1267 33.8412 82.4771C35.0542 83.7709 36.7927 84.4178 39.0569 84.4178C41.4827 84.4178 43.3183 83.7871 44.5555 82.5175C45.7927 81.248 46.4154 79.4043 46.4154 76.9785C46.4154 74.69 45.7927 72.903 44.5394 71.6254C43.286 70.3477 41.5393 69.7008 39.2994 69.7008C38.2725 69.7008 37.2779 69.8949 36.3075 70.2911C35.3372 70.6792 34.5124 71.2129 33.8412 71.8841C33.2186 72.5067 32.7496 73.2022 32.4261 73.9865C32.1027 74.7709 31.941 75.5795 31.941 76.4124V77.6253Z" fill="white"/>
<path d="M73.0188 87.5715V84.5391C71.7816 85.7763 70.4312 86.6901 68.9757 87.2723C67.5202 87.8545 65.8059 88.1456 63.8409 88.1456C61.1159 88.1456 59.0134 87.5876 57.5337 86.4637C56.0539 85.3478 55.3099 83.7629 55.3099 81.709C55.3099 79.4205 56.2722 77.7143 58.1967 76.5903C60.1213 75.4744 63.1617 74.8437 67.3099 74.7063L72.8895 74.5445V73.8572C72.8895 71.0027 71.0054 69.5715 67.2291 69.5715C65.3935 69.5715 63.9784 69.7898 62.9838 70.2426C61.9892 70.6874 61.3423 71.3666 61.0431 72.2804L56.7169 71.7952C57.2021 69.7736 58.3099 68.2858 60.0323 67.3235C61.7547 66.3693 64.2129 65.8922 67.3908 65.8922C70.8113 65.8922 73.3585 66.5634 75.0161 67.9138C76.6738 69.2642 77.4986 71.3262 77.4986 74.0998V87.5634H73.0107L73.0188 87.5715ZM72.8975 77.7467L67.3989 77.9084C64.8679 77.9893 63.0404 78.2965 61.9245 78.8383C60.8086 79.3801 60.2426 80.1968 60.2426 81.3046C60.2426 82.2993 60.6711 83.0755 61.5363 83.6335C62.4016 84.1833 63.5983 84.4583 65.1347 84.4583C66.2911 84.4583 67.407 84.2885 68.4663 83.9569C69.5337 83.6173 70.4555 83.1402 71.2318 82.5257C72.3396 81.6928 72.8895 80.5688 72.8895 79.1699V77.7548L72.8975 77.7467Z" fill="white"/>
<path d="M105.688 80.213C105.283 82.7764 104.127 84.7494 102.21 86.1402C100.294 87.5311 97.7873 88.2265 94.6902 88.2265C90.8897 88.2265 87.9301 87.2481 85.8115 85.2993C83.6929 83.3424 82.6417 80.6173 82.6417 77.116C82.6417 74.8761 83.1188 72.9192 84.073 71.2292C85.0272 69.5472 86.4261 68.2373 88.2536 67.3073C90.0892 66.3774 92.2563 65.9165 94.763 65.9165C97.6741 65.9165 100.035 66.5392 101.855 67.7925C103.674 69.0459 104.822 70.8491 105.308 73.1941L100.375 73.8411C99.6229 71.0917 97.7307 69.7171 94.7145 69.7171C92.4746 69.7171 90.7361 70.3559 89.4989 71.6416C88.2617 72.9192 87.639 74.7224 87.639 77.0432C87.639 79.364 88.2536 81.2723 89.4827 82.5419C90.7118 83.8114 92.4827 84.4421 94.7954 84.4421C98.1673 84.4421 100.157 83.0432 100.779 80.2373H105.671L105.688 80.213Z" fill="white"/>
<path d="M114.3 78.2723C114.356 80.213 115.035 81.7574 116.337 82.8976C117.647 84.0458 119.362 84.6119 121.496 84.6119C123.17 84.6119 124.537 84.3369 125.596 83.7871C126.663 83.2372 127.399 82.4205 127.804 81.3369H132.615C132.025 83.6577 130.804 85.3801 128.96 86.5121C127.116 87.6442 124.61 88.2103 121.456 88.2103C117.76 88.2103 114.857 87.2318 112.747 85.283C110.628 83.3262 109.577 80.6577 109.577 77.2615C109.577 75.0539 110.054 73.0889 111.008 71.3747C111.963 69.6604 113.337 68.3262 115.132 67.3558C116.928 66.3855 119.022 65.9003 121.415 65.9003C125.054 65.9003 127.876 66.8383 129.89 68.7062C131.895 70.5822 132.906 73.2022 132.906 76.566V78.2642H114.308L114.3 78.2723ZM128.248 75.0378C128.192 73.2588 127.569 71.876 126.364 70.8976C125.167 69.911 123.502 69.4178 121.375 69.4178C119.459 69.4178 117.874 69.9191 116.62 70.938C115.367 71.9488 114.631 73.3154 114.413 75.0458H128.24L128.248 75.0378Z" fill="white"/>
<path d="M138.194 95.4151V66.5472H142.965V70.0243C143.936 68.7305 145.205 67.7197 146.766 66.9919C148.326 66.2642 150.065 65.9003 151.981 65.9003C154.027 65.9003 155.847 66.345 157.415 67.2345C158.992 68.124 160.229 69.4016 161.135 71.0755C162.041 72.7493 162.485 74.69 162.485 76.8976C162.485 79.1051 162.041 80.9892 161.151 82.6954C160.262 84.4097 158.984 85.752 157.31 86.7386C155.636 87.7251 153.696 88.2183 151.488 88.2183C147.793 88.2183 144.979 86.9811 143.038 84.4987V95.4151H138.186H138.194ZM143.006 77.6253C143.006 79.5094 143.636 81.1267 144.906 82.4771C146.119 83.7709 147.857 84.4178 150.122 84.4178C152.547 84.4178 154.383 83.7871 155.62 82.5175C156.857 81.248 157.48 79.4043 157.48 76.9785C157.48 74.69 156.857 72.903 155.596 71.6254C154.343 70.3477 152.596 69.7008 150.364 69.7008C149.337 69.7008 148.343 69.8949 147.372 70.2911C146.402 70.6873 145.577 71.2129 144.906 71.8841C144.283 72.5067 143.814 73.2022 143.491 73.9865C143.167 74.7709 143.006 75.5795 143.006 76.4124V77.6253Z" fill="white"/>
<path d="M167.79 87.5715V66.5472H172.642V87.5715H167.79Z" fill="white"/>
<path d="M200.984 80.213C200.58 82.7764 199.423 84.7494 197.507 86.1402C195.59 87.5311 193.084 88.2265 189.987 88.2265C186.186 88.2265 183.226 87.2481 181.116 85.2993C178.997 83.3424 177.938 80.6173 177.938 77.116C177.938 74.8761 178.415 72.9192 179.377 71.2292C180.332 69.5472 181.73 68.2373 183.558 67.3073C185.385 66.3774 187.561 65.9165 190.067 65.9165C192.978 65.9165 195.348 66.5392 197.167 67.7925C198.987 69.0459 200.135 70.8491 200.628 73.1941L195.695 73.8411C194.943 71.0917 193.051 69.7171 190.035 69.7171C187.795 69.7171 186.057 70.3559 184.819 71.6416C183.582 72.9192 182.96 74.7224 182.96 77.0432C182.96 79.364 183.574 81.2723 184.803 82.5419C186.032 83.8114 187.803 84.4421 190.124 84.4421C193.496 84.4421 195.485 83.0432 196.108 80.2373H201L200.984 80.213Z" fill="white"/>
<path d="M170.216 52.566L171.631 56.9245H176.207L172.504 59.6092L173.919 63.9677L170.216 61.2749L166.512 63.9677L167.927 59.6092L164.224 56.9245H168.8L170.216 52.566Z" fill="#DFFE01"/>
</svg>
