<svg width="134" height="29" viewBox="0 0 134 29" fill="none" xmlns="http://www.w3.org/2000/svg">
<path d="M11.2669 13.1484C11.0135 12.5177 10.5714 12.0595 9.92992 11.7738C9.2938 11.4881 8.38814 11.3425 7.22372 11.3425C6.0593 11.3425 5.13207 11.4827 4.50134 11.7576C3.87061 12.0379 3.55794 12.4476 3.55794 12.9867C3.55794 13.4018 3.65499 13.7091 3.85445 13.9139C4.05391 14.1188 4.38275 14.2967 4.85176 14.4423C5.32076 14.5878 5.98382 14.7226 6.84636 14.8466L8.65229 15.1161C10.2156 15.3479 11.4286 15.639 12.2911 15.9894C13.1536 16.3398 13.7682 16.7819 14.1402 17.3102C14.5067 17.8385 14.69 18.5177 14.69 19.3425C14.69 20.7981 14.0916 21.8978 12.8949 22.6417C11.6981 23.3857 9.9353 23.763 7.60107 23.763C5.26684 23.763 3.48247 23.3749 2.24797 22.604C1.01886 21.8331 0.269542 20.6471 0 19.046H3.15363C3.38543 19.8169 3.84905 20.3776 4.53908 20.728C5.2291 21.0784 6.23181 21.2509 7.54718 21.2509C10.1725 21.2509 11.4825 20.6687 11.4825 19.4988C11.4825 18.9759 11.2399 18.5932 10.7547 18.3398C10.2695 18.0865 9.36927 17.8654 8.0593 17.666L6.25336 17.3964C4.74393 17.1808 3.56873 16.8951 2.72237 16.5339C1.87601 16.1727 1.28301 15.7145 0.932605 15.1592C0.5822 14.604 0.404313 13.8924 0.404313 13.0298C0.404313 11.736 1.00807 10.7226 2.2264 9.98402C3.43934 9.24548 5.10512 8.87891 7.22372 8.87891C9.34232 8.87891 10.938 9.18618 12.0647 9.80613C13.186 10.4261 13.9461 11.4288 14.345 12.8142L11.2722 13.1377L11.2669 13.1484Z" fill="white"/>
<path d="M18.0864 28.5662V9.32093H21.267V11.639C21.9139 10.7764 22.7603 10.1026 23.8007 9.61742C24.8412 9.13224 26.0002 8.88965 27.2778 8.88965C28.6417 8.88965 29.8492 9.18614 30.9058 9.77913C31.9571 10.3721 32.7819 11.2239 33.3856 12.3398C33.9894 13.4557 34.2859 14.7495 34.2859 16.2212C34.2859 17.6929 33.9894 18.9489 33.3964 20.0864C32.8034 21.2293 31.9517 22.1242 30.8358 22.7818C29.7199 23.4395 28.4261 23.7684 26.9544 23.7684C24.4907 23.7684 22.6147 22.9436 21.3209 21.2886V28.5662H18.0864ZM21.294 16.7064C21.294 17.9624 21.7145 19.0406 22.5608 19.9409C23.3694 20.8034 24.5285 21.2347 26.0379 21.2347C27.6552 21.2347 28.8789 20.8142 29.7037 19.9678C30.5285 19.1215 30.9436 17.8924 30.9436 16.2751C30.9436 14.7495 30.5285 13.5581 29.6929 12.7064C28.8573 11.8546 27.6929 11.4233 26.1996 11.4233C25.515 11.4233 24.8519 11.5527 24.205 11.8169C23.5581 12.0756 23.0083 12.4314 22.5608 12.8789C22.1457 13.294 21.8331 13.7576 21.6174 14.2805C21.4018 14.8034 21.294 15.3425 21.294 15.8977V16.7064Z" fill="white"/>
<path d="M48.679 23.3371V21.3156C47.8542 22.1404 46.9539 22.7495 45.9836 23.1377C45.0132 23.5258 43.8703 23.7199 42.5604 23.7199C40.7437 23.7199 39.3421 23.3479 38.3555 22.5986C37.369 21.8546 36.873 20.798 36.873 19.4288C36.873 17.9032 37.5146 16.7657 38.7976 16.0164C40.0806 15.2724 42.1075 14.8519 44.873 14.7603L48.5927 14.6525V14.1943C48.5927 12.2913 47.3367 11.3371 44.8191 11.3371C43.5954 11.3371 42.652 11.4827 41.9889 11.7846C41.3259 12.081 40.8946 12.5339 40.6951 13.1431L37.811 12.8196C38.1345 11.4719 38.873 10.48 40.0213 9.83847C41.1695 9.20235 42.8084 8.88428 44.927 8.88428C47.2073 8.88428 48.9054 9.33172 50.0105 10.232C51.1156 11.1323 51.6655 12.5069 51.6655 14.356V23.3317H48.6736L48.679 23.3371ZM48.5981 16.7873L44.9323 16.8951C43.245 16.949 42.0267 17.1538 41.2827 17.515C40.5388 17.8762 40.1615 18.4207 40.1615 19.1592C40.1615 19.8223 40.4472 20.3398 41.024 20.7118C41.6008 21.0784 42.3987 21.2617 43.4229 21.2617C44.1938 21.2617 44.9377 21.1485 45.6439 20.9274C46.3555 20.701 46.9701 20.3829 47.4876 19.9732C48.2262 19.418 48.5927 18.6687 48.5927 17.736V16.7926L48.5981 16.7873Z" fill="white"/>
<path d="M70.4586 18.4314C70.1891 20.1403 69.4182 21.4557 68.1406 22.3829C66.8629 23.3101 65.1918 23.7737 63.1271 23.7737C60.5934 23.7737 58.6203 23.1214 57.2079 21.8222C55.7955 20.5177 55.0947 18.7009 55.0947 16.3667C55.0947 14.8734 55.4128 13.5689 56.0489 12.4422C56.685 11.3209 57.6176 10.4476 58.836 9.82762C60.0597 9.20767 61.5044 8.90039 63.1756 8.90039C65.1163 8.90039 66.6904 9.31549 67.9034 10.1511C69.1163 10.9866 69.8818 12.1888 70.2052 13.7521L66.9168 14.1834C66.4155 12.3505 65.154 11.4341 63.1432 11.4341C61.65 11.4341 60.491 11.86 59.6662 12.7171C58.8414 13.5689 58.4263 14.771 58.4263 16.3182C58.4263 17.8654 58.836 19.1376 59.6554 19.984C60.4748 20.8303 61.6554 21.2508 63.1972 21.2508C65.4451 21.2508 66.7713 20.3182 67.1864 18.4476H70.4478L70.4586 18.4314Z" fill="white"/>
<path d="M76.1995 17.1376C76.2373 18.4314 76.6901 19.4611 77.558 20.2212C78.4313 20.9867 79.5742 21.3641 80.9974 21.3641C82.1133 21.3641 83.0243 21.1808 83.7305 20.8142C84.4421 20.4476 84.9327 19.9031 85.2022 19.1808H88.4098C88.0163 20.7279 87.2022 21.8762 85.9731 22.6309C84.744 23.3856 83.0728 23.763 80.9704 23.763C78.5068 23.763 76.5715 23.1107 75.1645 21.8115C73.7521 20.5069 73.0513 18.7279 73.0513 16.4638C73.0513 14.9921 73.3693 13.6821 74.0055 12.5392C74.6416 11.3964 75.558 10.5069 76.7548 9.86001C77.9515 9.21311 79.3478 8.88965 80.9435 8.88965C83.3693 8.88965 85.2507 9.51499 86.5931 10.7603C87.93 12.0109 88.6038 13.7576 88.6038 16.0002V17.1322H76.2049L76.1995 17.1376ZM85.4987 14.9813C85.461 13.7953 85.0459 12.8735 84.2427 12.2212C83.4448 11.5635 82.3343 11.2347 80.9165 11.2347C79.6389 11.2347 78.5823 11.5689 77.7467 12.2481C76.9111 12.922 76.4206 13.833 76.275 14.9867H85.4933L85.4987 14.9813Z" fill="white"/>
<path d="M92.1294 28.5662V9.32093H95.31V11.639C95.9569 10.7764 96.8033 10.1026 97.8437 9.61742C98.8841 9.13224 100.043 8.88965 101.321 8.88965C102.685 8.88965 103.898 9.18614 104.943 9.77913C105.995 10.3721 106.819 11.2239 107.423 12.3398C108.027 13.4557 108.323 14.7495 108.323 16.2212C108.323 17.6929 108.027 18.9489 107.434 20.0864C106.841 21.2293 105.989 22.1242 104.873 22.7818C103.757 23.4395 102.464 23.7684 100.992 23.7684C98.5283 23.7684 96.6523 22.9436 95.3585 21.2886V28.5662H92.124H92.1294ZM95.337 16.7064C95.337 17.9624 95.7574 19.0406 96.6038 19.9409C97.4124 20.8034 98.5715 21.2347 100.081 21.2347C101.698 21.2347 102.922 20.8142 103.747 19.9678C104.571 19.1215 104.987 17.8924 104.987 16.2751C104.987 14.7495 104.571 13.5581 103.731 12.7064C102.895 11.8546 101.73 11.4233 100.243 11.4233C99.558 11.4233 98.8949 11.5527 98.248 11.8169C97.6011 12.081 97.0512 12.4314 96.6038 12.8789C96.1887 13.294 95.876 13.7576 95.6604 14.2805C95.4448 14.8034 95.337 15.3425 95.337 15.8977V16.7064Z" fill="white"/>
<path d="M111.86 23.337V9.3208H115.094V23.337H111.86Z" fill="white"/>
<path d="M133.989 18.4314C133.72 20.1403 132.949 21.4557 131.671 22.3829C130.394 23.3101 128.723 23.7737 126.658 23.7737C124.124 23.7737 122.151 23.1214 120.744 21.8222C119.332 20.5177 118.625 18.7009 118.625 16.3667C118.625 14.8734 118.944 13.5689 119.585 12.4422C120.221 11.3209 121.154 10.4476 122.372 9.82762C123.59 9.20767 125.041 8.90039 126.712 8.90039C128.652 8.90039 130.232 9.31549 131.445 10.1511C132.658 10.9866 133.423 12.1888 133.752 13.7521L130.464 14.1834C129.962 12.3505 128.701 11.4341 126.69 11.4341C125.197 11.4341 124.038 11.86 123.213 12.7171C122.388 13.5689 121.973 14.771 121.973 16.3182C121.973 17.8654 122.383 19.1376 123.202 19.984C124.022 20.8303 125.202 21.2508 126.749 21.2508C128.997 21.2508 130.324 20.3182 130.739 18.4476H134L133.989 18.4314Z" fill="white"/>
<path d="M113.477 0L114.42 2.90565H117.472L115.003 4.69542L115.946 7.60109L113.477 5.80593L111.008 7.60109L111.951 4.69542L109.482 2.90565H112.534L113.477 0Z" fill="#DFFE01"/>
</svg>
