<svg width="209" height="96" viewBox="0 0 209 96" fill="none" xmlns="http://www.w3.org/2000/svg">
<path d="M35.5014 0.56604L38.2778 9.31259L45.9444 4.42606L42.5358 12.9379L51.5 14.1991L43.4993 18.4946L49.5701 25.3126L40.7229 23.3812L41.057 32.566L35.5014 25.3126L29.943 32.566L30.2799 23.3812L21.4299 25.3126L27.5007 18.4946L19.5 14.1991L28.467 12.9379L25.0584 4.42606L32.7222 9.31259L35.5014 0.56604Z" fill="#734BFB"/>
<path d="M101.522 30.3573L101.471 16.2058L92.3775 27.0502L101.436 16.1765L87.5 18.636L101.429 16.1301L89.1706 9.05683L101.451 16.091L96.6078 2.792L101.495 16.0764L106.331 2.7749L101.537 16.091L113.793 9.01287L101.561 16.1301L115.5 18.5847L101.554 16.1765L110.652 27.016L101.517 16.2058L101.522 30.3573Z" fill="white" stroke="#FF3CE6" stroke-width="3" stroke-miterlimit="10"/>
<path d="M171.551 15.5559C169.328 15.5559 167.51 13.7378 167.51 11.5155V1.56604H165.827V11.5155C165.827 13.7378 164.008 15.5559 161.786 15.5559H151.5V17.5761H161.786C164.008 17.5761 165.827 19.3943 165.827 21.6165V31.566H167.51V21.6165C167.51 19.3943 169.328 17.5761 171.551 17.5761H181.5V15.5559H171.551Z" fill="#33C87E"/>
</svg>
