<svg width="209" height="101" viewBox="0 0 209 101" fill="none" xmlns="http://www.w3.org/2000/svg">
<path d="M38.5479 3.56677C38.8433 2.63707 40.1589 2.63726 40.4541 3.56705L41.8842 8.07253C42.083 8.69856 42.821 8.96628 43.3748 8.61324L47.3229 6.09684C48.1423 5.57456 49.1499 6.40979 48.7887 7.31187L47.01 11.7535C46.7687 12.356 47.1564 13.0251 47.799 13.1155L52.4739 13.7732C53.4311 13.9079 53.6592 15.1873 52.8076 15.6445L48.6159 17.895C48.0465 18.2008 47.9123 18.9583 48.3421 19.4411L51.5236 23.0141C52.1678 23.7376 51.5099 24.8627 50.5635 24.6561L45.9824 23.656C45.3442 23.5167 44.746 24.0166 44.7697 24.6694L44.943 29.4314C44.9784 30.4051 43.7423 30.8493 43.1498 30.0758L40.2951 26.3487C39.8949 25.8262 39.1078 25.8261 38.7075 26.3485L35.851 30.076C35.2583 30.8494 34.0222 30.4048 34.058 29.4311L34.2326 24.6697C34.2566 24.0168 33.6584 23.5167 33.0201 23.656L28.4362 24.6564C27.4898 24.8629 26.832 23.7378 27.4761 23.0144L30.6579 19.4411C31.0877 18.9583 30.9535 18.2008 30.3841 17.895L26.1926 15.6446C25.341 15.1874 25.5692 13.908 26.5264 13.7733L31.2037 13.1155C31.8464 13.0251 32.234 12.3559 31.9928 11.7535L30.2144 7.31268C29.8532 6.41052 30.861 5.57528 31.6804 6.09775L35.6254 8.61315C36.1792 8.96625 36.9172 8.69873 37.1161 8.0728L38.5479 3.56677Z" fill="#9001FF"/>
<path d="M105.522 30.3573L105.471 16.2058L96.3775 27.0502L105.436 16.1765L91.5 18.636L105.429 16.1301L93.1706 9.05683L105.451 16.091L100.608 2.792L105.495 16.0764L110.331 2.7749L105.537 16.091L117.793 9.01287L105.561 16.1301L119.5 18.5847L105.554 16.1765L114.652 27.016L105.517 16.2058L105.522 30.3573Z" fill="white" stroke="#FD01A8" stroke-width="3" stroke-miterlimit="10" stroke-linecap="round" stroke-linejoin="round"/>
<path d="M175.551 15.5558C173.328 15.5558 171.51 13.7376 171.51 11.5154V2.40767C171.51 1.94278 171.133 1.56592 170.668 1.56592C170.203 1.56592 169.827 1.94278 169.827 2.40767V11.5154C169.827 13.7376 168.008 15.5558 165.786 15.5558H156.5C155.948 15.5558 155.5 16.0035 155.5 16.5558V16.576C155.5 17.1283 155.948 17.576 156.5 17.576H165.786C168.008 17.576 169.827 19.3942 169.827 21.6164V30.7242C169.827 31.1891 170.203 31.5659 170.668 31.5659C171.133 31.5659 171.51 31.1891 171.51 30.7242V21.6164C171.51 19.3942 173.328 17.576 175.551 17.576H184.5C185.052 17.576 185.5 17.1283 185.5 16.576V16.5558C185.5 16.0035 185.052 15.5558 184.5 15.5558H175.551Z" fill="#A2EF05"/>
<path d="M10.3503 88.9712C8.40022 88.9712 6.64519 88.6262 5.08516 87.9362C3.55513 87.2162 2.34011 86.2562 1.44009 85.0561C0.540072 83.8261 0.0600622 82.4611 6.10352e-05 80.9611H5.31016C5.40017 82.0111 5.89518 82.8961 6.79519 83.6161C7.72521 84.3061 8.88023 84.6511 10.2603 84.6511C11.7003 84.6511 12.8103 84.3811 13.5903 83.8411C14.4003 83.2711 14.8053 82.5511 14.8053 81.6811C14.8053 80.7511 14.3553 80.061 13.4553 79.611C12.5853 79.161 11.1903 78.666 9.27024 78.126C7.41021 77.616 5.89518 77.121 4.72515 76.641C3.55513 76.161 2.53511 75.426 1.66509 74.4359C0.825077 73.4459 0.405069 72.1409 0.405069 70.5209C0.405069 69.2008 0.795076 68.0008 1.57509 66.9208C2.35511 65.8108 3.46513 64.9408 4.90516 64.3107C6.37519 63.6807 8.05522 63.3657 9.94525 63.3657C12.7653 63.3657 15.0304 64.0857 16.7404 65.5258C18.4804 66.9358 19.4104 68.8708 19.5304 71.3309H14.4003C14.3103 70.2209 13.8603 69.3358 13.0503 68.6758C12.2403 68.0158 11.1453 67.6858 9.76525 67.6858C8.41523 67.6858 7.3802 67.9408 6.66019 68.4508C5.94018 68.9608 5.58017 69.6358 5.58017 70.4759C5.58017 71.1359 5.82017 71.6909 6.30018 72.1409C6.78019 72.5909 7.3652 72.9509 8.05522 73.2209C8.74523 73.4609 9.76525 73.7759 11.1153 74.1659C12.9153 74.6459 14.3853 75.1409 15.5254 75.651C16.6954 76.131 17.7004 76.851 18.5404 77.811C19.3804 78.771 19.8154 80.046 19.8454 81.6361C19.8454 83.0461 19.4554 84.3061 18.6754 85.4161C17.8954 86.5262 16.7854 87.3962 15.3454 88.0262C13.9353 88.6562 12.2703 88.9712 10.3503 88.9712Z" fill="white"/>
<path d="M31.0362 67.4158C31.9063 66.2758 33.0913 65.3158 34.5913 64.5357C36.0913 63.7557 37.7864 63.3657 39.6764 63.3657C41.8365 63.3657 43.8015 63.9057 45.5715 64.9858C47.3716 66.0358 48.7816 67.5208 49.8016 69.4408C50.8216 71.3609 51.3316 73.5659 51.3316 76.056C51.3316 78.546 50.8216 80.7811 49.8016 82.7611C48.7816 84.7111 47.3716 86.2412 45.5715 87.3512C43.8015 88.4312 41.8365 88.9712 39.6764 88.9712C37.7864 88.9712 36.1063 88.5962 34.6363 87.8462C33.1663 87.0662 31.9663 86.1062 31.0362 84.9661V100.356H25.9061V63.7707H31.0362V67.4158ZM46.1115 76.056C46.1115 74.3459 45.7515 72.8759 45.0315 71.6459C44.3415 70.3859 43.4115 69.4408 42.2415 68.8108C41.1014 68.1508 39.8714 67.8208 38.5514 67.8208C37.2614 67.8208 36.0313 68.1508 34.8613 68.8108C33.7213 69.4708 32.7913 70.4309 32.0713 71.6909C31.3813 72.9509 31.0362 74.4359 31.0362 76.146C31.0362 77.856 31.3813 79.356 32.0713 80.6461C32.7913 81.9061 33.7213 82.8661 34.8613 83.5261C36.0313 84.1861 37.2614 84.5161 38.5514 84.5161C39.8714 84.5161 41.1014 84.1861 42.2415 83.5261C43.4115 82.8361 44.3415 81.8461 45.0315 80.5561C45.7515 79.266 46.1115 77.766 46.1115 76.056Z" fill="white"/>
<path d="M55.2123 76.056C55.2123 73.5659 55.7223 71.3609 56.7423 69.4408C57.7923 67.5208 59.2023 66.0358 60.9724 64.9858C62.7724 63.9057 64.7524 63.3657 66.9125 63.3657C68.8625 63.3657 70.5576 63.7557 71.9976 64.5357C73.4676 65.2858 74.6376 66.2308 75.5077 67.3708V63.7707H80.6828V88.5662H75.5077V84.8761C74.6376 86.0462 73.4526 87.0212 71.9526 87.8012C70.4526 88.5812 68.7425 88.9712 66.8225 88.9712C64.6924 88.9712 62.7424 88.4312 60.9724 87.3512C59.2023 86.2412 57.7923 84.7111 56.7423 82.7611C55.7223 80.7811 55.2123 78.546 55.2123 76.056ZM75.5077 76.146C75.5077 74.4359 75.1477 72.9509 74.4276 71.6909C73.7376 70.4309 72.8226 69.4708 71.6826 68.8108C70.5426 68.1508 69.3125 67.8208 67.9925 67.8208C66.6725 67.8208 65.4425 68.1508 64.3024 68.8108C63.1624 69.4408 62.2324 70.3859 61.5124 71.6459C60.8224 72.8759 60.4774 74.3459 60.4774 76.056C60.4774 77.766 60.8224 79.266 61.5124 80.5561C62.2324 81.8461 63.1624 82.8361 64.3024 83.5261C65.4725 84.1861 66.7025 84.5161 67.9925 84.5161C69.3125 84.5161 70.5426 84.1861 71.6826 83.5261C72.8226 82.8661 73.7376 81.9061 74.4276 80.6461C75.1477 79.356 75.5077 77.856 75.5077 76.146Z" fill="white"/>
<path d="M86.2284 76.146C86.2284 73.5959 86.7384 71.3609 87.7584 69.4408C88.8085 67.4908 90.2485 65.9908 92.0785 64.9408C93.9086 63.8907 96.0086 63.3657 98.3786 63.3657C101.379 63.3657 103.854 64.0857 105.804 65.5258C107.784 66.9358 109.119 68.9608 109.809 71.6009H104.274C103.824 70.3709 103.104 69.4108 102.114 68.7208C101.124 68.0308 99.8787 67.6858 98.3786 67.6858C96.2786 67.6858 94.5986 68.4358 93.3385 69.9358C92.1085 71.4059 91.4935 73.4759 91.4935 76.146C91.4935 78.816 92.1085 80.9011 93.3385 82.4011C94.5986 83.9011 96.2786 84.6511 98.3786 84.6511C101.349 84.6511 103.314 83.3461 104.274 80.7361H109.809C109.089 83.2561 107.739 85.2661 105.759 86.7662C103.779 88.2362 101.319 88.9712 98.3786 88.9712C96.0086 88.9712 93.9086 88.4462 92.0785 87.3962C90.2485 86.3162 88.8085 84.8161 87.7584 82.8961C86.7384 80.9461 86.2284 78.696 86.2284 76.146Z" fill="white"/>
<path d="M138.164 75.561C138.164 76.491 138.104 77.331 137.984 78.081H119.039C119.189 80.061 119.924 81.6511 121.244 82.8511C122.564 84.0511 124.184 84.6511 126.104 84.6511C128.864 84.6511 130.814 83.4961 131.954 81.1861H137.489C136.739 83.4661 135.374 85.3411 133.394 86.8112C131.444 88.2512 129.014 88.9712 126.104 88.9712C123.734 88.9712 121.604 88.4462 119.714 87.3962C117.854 86.3162 116.384 84.8161 115.304 82.8961C114.254 80.9461 113.729 78.696 113.729 76.146C113.729 73.5959 114.239 71.3609 115.259 69.4408C116.309 67.4908 117.764 65.9908 119.624 64.9408C121.514 63.8907 123.674 63.3657 126.104 63.3657C128.444 63.3657 130.529 63.8757 132.359 64.8958C134.189 65.9158 135.614 67.3558 136.634 69.2158C137.654 71.0459 138.164 73.1609 138.164 75.561ZM132.809 73.9409C132.779 72.0509 132.104 70.5359 130.784 69.3958C129.464 68.2558 127.829 67.6858 125.879 67.6858C124.109 67.6858 122.594 68.2558 121.334 69.3958C120.074 70.5059 119.324 72.0209 119.084 73.9409H132.809Z" fill="white"/>
<path d="M148.86 67.4158C149.73 66.2758 150.916 65.3158 152.416 64.5357C153.916 63.7557 155.611 63.3657 157.501 63.3657C159.661 63.3657 161.626 63.9057 163.396 64.9858C165.196 66.0358 166.606 67.5208 167.626 69.4408C168.646 71.3609 169.156 73.5659 169.156 76.056C169.156 78.546 168.646 80.7811 167.626 82.7611C166.606 84.7111 165.196 86.2412 163.396 87.3512C161.626 88.4312 159.661 88.9712 157.501 88.9712C155.611 88.9712 153.931 88.5962 152.461 87.8462C150.991 87.0662 149.79 86.1062 148.86 84.9661V100.356H143.73V63.7707H148.86V67.4158ZM163.936 76.056C163.936 74.3459 163.576 72.8759 162.856 71.6459C162.166 70.3859 161.236 69.4408 160.066 68.8108C158.926 68.1508 157.696 67.8208 156.376 67.8208C155.086 67.8208 153.856 68.1508 152.686 68.8108C151.546 69.4708 150.616 70.4309 149.896 71.6909C149.206 72.9509 148.86 74.4359 148.86 76.146C148.86 77.856 149.206 79.356 149.896 80.6461C150.616 81.9061 151.546 82.8661 152.686 83.5261C153.856 84.1861 155.086 84.5161 156.376 84.5161C157.696 84.5161 158.926 84.1861 160.066 83.5261C161.236 82.8361 162.166 81.8461 162.856 80.5561C163.576 79.266 163.936 77.766 163.936 76.056Z" fill="white"/>
<path d="M177.113 65.6938C177.137 65.4546 177.486 65.4546 177.511 65.6938L179.877 88.5662H174.747L177.113 65.6938Z" fill="white"/>
<path d="M185.419 76.146C185.419 73.5959 185.929 71.3609 186.949 69.4408C188 67.4908 189.44 65.9908 191.27 64.9408C193.1 63.8907 195.2 63.3657 197.57 63.3657C200.57 63.3657 203.045 64.0857 204.995 65.5258C206.975 66.9358 208.31 68.9608 209 71.6009H203.465C203.015 70.3709 202.295 69.4108 201.305 68.7208C200.315 68.0308 199.07 67.6858 197.57 67.6858C195.47 67.6858 193.79 68.4358 192.53 69.9358C191.3 71.4059 190.685 73.4759 190.685 76.146C190.685 78.816 191.3 80.9011 192.53 82.4011C193.79 83.9011 195.47 84.6511 197.57 84.6511C200.54 84.6511 202.505 83.3461 203.465 80.7361H209C208.28 83.2561 206.93 85.2661 204.95 86.7662C202.97 88.2362 200.51 88.9712 197.57 88.9712C195.2 88.9712 193.1 88.4462 191.27 87.3962C189.44 86.3162 188 84.8161 186.949 82.8961C185.929 80.9461 185.419 78.696 185.419 76.146Z" fill="white"/>
<g filter="url(#filter0_d_1465_1329)">
<path d="M177.292 53.1661C177.352 52.9801 177.615 52.9802 177.674 53.1661L178.381 55.3929C178.42 55.5182 178.568 55.5717 178.679 55.5011L180.63 54.2572C180.794 54.1527 180.996 54.3198 180.923 54.5002L180.051 56.6786C180.003 56.7991 180.08 56.9329 180.209 56.951L182.503 57.2737C182.694 57.3007 182.74 57.5566 182.569 57.648L180.518 58.7492C180.404 58.8103 180.378 58.9618 180.464 59.0584L182.02 60.8064C182.149 60.9511 182.017 61.1761 181.828 61.1348L179.571 60.642C179.443 60.6141 179.323 60.7141 179.328 60.8447L179.414 63.1892C179.421 63.384 179.173 63.4728 179.055 63.3181L177.642 61.4733C177.562 61.3688 177.404 61.3688 177.324 61.4733L175.911 63.3182C175.792 63.4728 175.545 63.3839 175.552 63.1892L175.638 60.8447C175.643 60.7142 175.523 60.6141 175.395 60.642L173.137 61.1348C172.948 61.1761 172.816 60.9511 172.945 60.8064L174.502 59.0584C174.588 58.9618 174.561 58.8103 174.447 58.7492L172.396 57.648C172.226 57.5566 172.271 57.3007 172.463 57.2738L174.757 56.951C174.886 56.9329 174.963 56.7991 174.915 56.6786L174.043 54.5003C173.971 54.3199 174.172 54.1529 174.336 54.2573L176.287 55.5011C176.397 55.5717 176.545 55.5182 176.585 55.393L177.292 53.1661Z" fill="#FEC606"/>
</g>
<defs>
<filter id="filter0_d_1465_1329" x="162.291" y="47.0269" width="30.3843" height="30.3701" filterUnits="userSpaceOnUse" color-interpolation-filters="sRGB">
<feFlood flood-opacity="0" result="BackgroundImageFix"/>
<feColorMatrix in="SourceAlpha" type="matrix" values="0 0 0 0 0 0 0 0 0 0 0 0 0 0 0 0 0 0 127 0" result="hardAlpha"/>
<feOffset dy="4"/>
<feGaussianBlur stdDeviation="5"/>
<feComposite in2="hardAlpha" operator="out"/>
<feColorMatrix type="matrix" values="0 0 0 0 0 0 0 0 0 0 0 0 0 0 0 0 0 0 0.2 0"/>
<feBlend mode="normal" in2="BackgroundImageFix" result="effect1_dropShadow_1465_1329"/>
<feBlend mode="normal" in="SourceGraphic" in2="effect1_dropShadow_1465_1329" result="shape"/>
</filter>
</defs>
</svg>
