<svg width="129" height="36" viewBox="0 0 129 36" fill="none" xmlns="http://www.w3.org/2000/svg">
<path d="M6.3633 28.3824C5.16442 28.3824 4.08542 28.1703 3.12632 27.7461C2.18566 27.3034 1.43866 26.7132 0.885329 25.9754C0.331998 25.2192 0.0368887 24.38 0 23.4577H3.26465C3.31998 24.1033 3.62431 24.6474 4.17764 25.0901C4.74942 25.5143 5.45953 25.7264 6.30797 25.7264C7.1933 25.7264 7.87574 25.5604 8.35529 25.2284C8.85329 24.878 9.10229 24.4353 9.10229 23.9004C9.10229 23.3286 8.82562 22.9044 8.27229 22.6277C7.7374 22.3511 6.87974 22.0468 5.6993 21.7148C4.55575 21.4012 3.62431 21.0969 2.90498 20.8018C2.18566 20.5067 1.55855 20.0548 1.02366 19.4461C0.507219 18.8374 0.248999 18.0351 0.248999 17.0391C0.248999 16.2276 0.488775 15.4898 0.968328 14.8258C1.44788 14.1434 2.13032 13.6085 3.01565 13.2211C3.91942 12.8338 4.95231 12.6401 6.1143 12.6401C7.84807 12.6401 9.24062 13.0828 10.2919 13.9681C11.3617 14.835 11.9335 16.0247 12.0073 17.5371H8.85329C8.79795 16.8547 8.52129 16.3106 8.02329 15.9048C7.52529 15.499 6.85208 15.2961 6.00364 15.2961C5.17364 15.2961 4.53731 15.4529 4.09465 15.7665C3.65198 16.08 3.43065 16.495 3.43065 17.0114C3.43065 17.4172 3.5782 17.7584 3.87331 18.0351C4.16842 18.3118 4.52809 18.5331 4.95231 18.6991C5.37653 18.8467 6.00363 19.0403 6.83363 19.2801C7.94029 19.5752 8.84406 19.8795 9.54495 20.1931C10.2643 20.4882 10.8822 20.9309 11.3986 21.5211C11.915 22.1113 12.1825 22.8952 12.2009 23.8727C12.2009 24.7396 11.9612 25.5143 11.4816 26.1967C11.0021 26.8792 10.3196 27.4141 9.43428 27.8014C8.5674 28.1887 7.54374 28.3824 6.3633 28.3824Z" fill="white"/>
<path d="M19.081 15.1301C19.6159 14.4292 20.3445 13.839 21.2667 13.3595C22.1889 12.8799 23.231 12.6401 24.393 12.6401C25.721 12.6401 26.9291 12.9721 28.0173 13.6361C29.124 14.2817 29.9909 15.1947 30.618 16.3751C31.2451 17.5556 31.5586 18.9112 31.5586 20.4421C31.5586 21.973 31.2451 23.3471 30.618 24.5644C29.9909 25.7633 29.124 26.704 28.0173 27.3864C26.9291 28.0504 25.721 28.3824 24.393 28.3824C23.231 28.3824 22.1981 28.1518 21.2944 27.6907C20.3906 27.2112 19.6528 26.621 19.081 25.9201V35.382H15.9271V12.8891H19.081V15.1301ZM28.3493 20.4421C28.3493 19.3908 28.128 18.487 27.6853 17.7308C27.2611 16.9561 26.6893 16.3751 25.97 15.9878C25.2691 15.582 24.5129 15.3791 23.7013 15.3791C22.9082 15.3791 22.152 15.582 21.4327 15.9878C20.7318 16.3936 20.16 16.9838 19.7174 17.7584C19.2931 18.5331 19.081 19.4461 19.081 20.4974C19.081 21.5488 19.2931 22.471 19.7174 23.2641C20.16 24.0387 20.7318 24.629 21.4327 25.0347C22.152 25.4405 22.9082 25.6434 23.7013 25.6434C24.5129 25.6434 25.2691 25.4405 25.97 25.0347C26.6893 24.6105 27.2611 24.0019 27.6853 23.2087C28.128 22.4156 28.3493 21.4934 28.3493 20.4421Z" fill="white"/>
<path d="M33.9444 20.4421C33.9444 18.9112 34.258 17.5556 34.8851 16.3751C35.5307 15.1947 36.3975 14.2817 37.4858 13.6361C38.5924 12.9721 39.8097 12.6401 41.1377 12.6401C42.3366 12.6401 43.3787 12.8799 44.2641 13.3595C45.1678 13.8206 45.8872 14.4016 46.422 15.1025V12.8891H49.6037V28.1334H46.422V25.8647C45.8872 26.5841 45.1586 27.1835 44.2364 27.6631C43.3142 28.1426 42.2628 28.3824 41.0824 28.3824C39.7729 28.3824 38.574 28.0504 37.4858 27.3864C36.3975 26.704 35.5307 25.7633 34.8851 24.5644C34.258 23.3471 33.9444 21.973 33.9444 20.4421ZM46.422 20.4974C46.422 19.4461 46.2007 18.5331 45.758 17.7584C45.3338 16.9838 44.7713 16.3936 44.0704 15.9878C43.3695 15.582 42.6133 15.3791 41.8017 15.3791C40.9902 15.3791 40.234 15.582 39.5331 15.9878C38.8322 16.3751 38.2604 16.9561 37.8178 17.7308C37.3935 18.487 37.1814 19.3908 37.1814 20.4421C37.1814 21.4934 37.3935 22.4156 37.8178 23.2087C38.2604 24.0019 38.8322 24.6105 39.5331 25.0347C40.2524 25.4405 41.0086 25.6434 41.8017 25.6434C42.6133 25.6434 43.3695 25.4405 44.0704 25.0347C44.7713 24.629 45.3338 24.0387 45.758 23.2641C46.2007 22.471 46.422 21.5488 46.422 20.4974Z" fill="white"/>
<path d="M53.0132 20.4974C53.0132 18.9297 53.3267 17.5556 53.9538 16.3751C54.5994 15.1762 55.4847 14.254 56.6098 13.6085C57.7349 12.9629 59.026 12.6401 60.4831 12.6401C62.3276 12.6401 63.8492 13.0828 65.0481 13.9681C66.2654 14.835 67.0862 16.08 67.5104 17.7031H64.1074C63.8308 16.9469 63.3881 16.3567 62.7794 15.9325C62.1708 15.5082 61.4053 15.2961 60.4831 15.2961C59.192 15.2961 58.1591 15.7572 57.3845 16.6794C56.6282 17.5832 56.2501 18.8559 56.2501 20.4974C56.2501 22.139 56.6282 23.4209 57.3845 24.3431C58.1591 25.2653 59.192 25.7264 60.4831 25.7264C62.3091 25.7264 63.5172 24.9241 64.1074 23.3194H67.5104C67.0677 24.8687 66.2377 26.1045 65.0204 27.0267C63.8031 27.9305 62.2907 28.3824 60.4831 28.3824C59.026 28.3824 57.7349 28.0596 56.6098 27.4141C55.4847 26.7501 54.5994 25.8278 53.9538 24.6474C53.3267 23.4485 53.0132 22.0652 53.0132 20.4974Z" fill="white"/>
<path d="M84.9433 20.1378C84.9433 20.7095 84.9065 21.226 84.8327 21.6871H73.1851C73.2773 22.9044 73.7292 23.882 74.5407 24.6197C75.3523 25.3575 76.3483 25.7264 77.5287 25.7264C79.2256 25.7264 80.4245 25.0163 81.1254 23.5961H84.5283C84.0672 24.9978 83.228 26.1506 82.0107 27.0544C80.8118 27.9397 79.3178 28.3824 77.5287 28.3824C76.0716 28.3824 74.7621 28.0596 73.6001 27.4141C72.4565 26.7501 71.5527 25.8278 70.8888 24.6474C70.2432 23.4485 69.9204 22.0652 69.9204 20.4974C69.9204 18.9297 70.234 17.5556 70.8611 16.3751C71.5066 15.1762 72.4012 14.254 73.5447 13.6085C74.7067 12.9629 76.0347 12.6401 77.5287 12.6401C78.9674 12.6401 80.2493 12.9537 81.3744 13.5808C82.4995 14.2079 83.3756 15.0932 84.0027 16.2368C84.6298 17.3619 84.9433 18.6622 84.9433 20.1378ZM81.651 19.1418C81.6326 17.9798 81.2176 17.0483 80.406 16.3474C79.5945 15.6466 78.5893 15.2961 77.3904 15.2961C76.3022 15.2961 75.3707 15.6466 74.5961 16.3474C73.8214 17.0299 73.3603 17.9613 73.2127 19.1418H81.651Z" fill="white"/>
<path d="M91.5193 15.1301C92.0542 14.4292 92.7828 13.839 93.705 13.3595C94.6272 12.8799 95.6693 12.6401 96.8313 12.6401C98.1593 12.6401 99.3674 12.9721 100.456 13.6361C101.562 14.2817 102.429 15.1947 103.056 16.3751C103.683 17.5556 103.997 18.9112 103.997 20.4421C103.997 21.973 103.683 23.3471 103.056 24.5644C102.429 25.7633 101.562 26.704 100.456 27.3864C99.3674 28.0504 98.1593 28.3824 96.8313 28.3824C95.6693 28.3824 94.6364 28.1518 93.7327 27.6907C92.8289 27.2112 92.0911 26.621 91.5193 25.9201V35.382H88.3653V12.8891H91.5193V15.1301ZM100.788 20.4421C100.788 19.3908 100.566 18.487 100.124 17.7308C99.6994 16.9561 99.1276 16.3751 98.4083 15.9878C97.7074 15.582 96.9512 15.3791 96.1396 15.3791C95.3465 15.3791 94.5903 15.582 93.871 15.9878C93.1701 16.3936 92.5983 16.9838 92.1557 17.7584C91.7314 18.5331 91.5193 19.4461 91.5193 20.4974C91.5193 21.5488 91.7314 22.471 92.1557 23.2641C92.5983 24.0387 93.1701 24.629 93.871 25.0347C94.5903 25.4405 95.3465 25.6434 96.1396 25.6434C96.9512 25.6434 97.7074 25.4405 98.4083 25.0347C99.1276 24.6105 99.6994 24.0019 100.124 23.2087C100.566 22.4156 100.788 21.4934 100.788 20.4421Z" fill="white"/>
<path d="M108.812 14.8122C108.837 14.573 109.185 14.573 109.21 14.8122L110.588 28.1334H107.434L108.812 14.8122Z" fill="white"/>
<path d="M113.996 20.4974C113.996 18.9297 114.309 17.5556 114.936 16.3751C115.582 15.1762 116.467 14.254 117.592 13.6085C118.718 12.9629 120.009 12.6401 121.466 12.6401C123.31 12.6401 124.832 13.0828 126.031 13.9681C127.248 14.835 128.069 16.08 128.493 17.7031H125.09C124.813 16.9469 124.371 16.3567 123.762 15.9325C123.153 15.5082 122.388 15.2961 121.466 15.2961C120.175 15.2961 119.142 15.7572 118.367 16.6794C117.611 17.5832 117.233 18.8559 117.233 20.4974C117.233 22.139 117.611 23.4209 118.367 24.3431C119.142 25.2653 120.175 25.7264 121.466 25.7264C123.292 25.7264 124.5 24.9241 125.09 23.3194H128.493C128.05 24.8687 127.22 26.1045 126.003 27.0267C124.786 27.9305 123.273 28.3824 121.466 28.3824C120.009 28.3824 118.718 28.0596 117.592 27.4141C116.467 26.7501 115.582 25.8278 114.936 24.6474C114.309 23.4485 113.996 22.0652 113.996 20.4974Z" fill="white"/>
<g filter="url(#filter0_d_1465_1315)">
<path d="M108.926 6.60017C108.985 6.41423 109.248 6.41427 109.307 6.60023L109.638 7.64253C109.678 7.76774 109.825 7.82128 109.936 7.75068L110.849 7.1685C111.013 7.06405 111.215 7.23109 111.143 7.41151L110.732 8.43726C110.683 8.55775 110.761 8.69158 110.89 8.70966L111.969 8.86157C112.161 8.8885 112.206 9.14438 112.036 9.23583L111.068 9.75527C110.955 9.81642 110.928 9.96793 111.014 10.0645L111.748 10.8892C111.877 11.0339 111.745 11.2589 111.556 11.2176L110.497 10.9864C110.369 10.9585 110.25 11.0585 110.254 11.189L110.294 12.2897C110.302 12.4845 110.054 12.5733 109.936 12.4186L109.275 11.5561C109.195 11.4516 109.038 11.4516 108.958 11.556L108.297 12.4186C108.178 12.5733 107.931 12.4844 107.938 12.2897L107.978 11.1891C107.983 11.0585 107.864 10.9585 107.736 10.9864L106.676 11.2176C106.487 11.2589 106.355 11.0339 106.484 10.8892L107.219 10.0645C107.305 9.96793 107.278 9.81642 107.164 9.75527L106.196 9.23585C106.026 9.1444 106.072 8.88851 106.263 8.86159L107.343 8.70965C107.472 8.69157 107.549 8.55775 107.501 8.43725L107.09 7.41167C107.018 7.23124 107.22 7.06419 107.384 7.16868L108.296 7.75066C108.407 7.82128 108.555 7.76777 108.595 7.64259L108.926 6.60017Z" fill="#FEC606"/>
</g>
<defs>
<filter id="filter0_d_1465_1315" x="96.0908" y="0.460938" width="26.0507" height="26.0366" filterUnits="userSpaceOnUse" color-interpolation-filters="sRGB">
<feFlood flood-opacity="0" result="BackgroundImageFix"/>
<feColorMatrix in="SourceAlpha" type="matrix" values="0 0 0 0 0 0 0 0 0 0 0 0 0 0 0 0 0 0 127 0" result="hardAlpha"/>
<feOffset dy="4"/>
<feGaussianBlur stdDeviation="5"/>
<feComposite in2="hardAlpha" operator="out"/>
<feColorMatrix type="matrix" values="0 0 0 0 0 0 0 0 0 0 0 0 0 0 0 0 0 0 0.2 0"/>
<feBlend mode="normal" in2="BackgroundImageFix" result="effect1_dropShadow_1465_1315"/>
<feBlend mode="normal" in="SourceGraphic" in2="effect1_dropShadow_1465_1315" result="shape"/>
</filter>
</defs>
</svg>
