<svg width="201" height="190" viewBox="0 0 201 190" fill="none" xmlns="http://www.w3.org/2000/svg">
<path d="M30.2532 129.248C30.2532 132.032 27.4212 133.976 22.7892 133.976C18.1572 133.976 15.3492 132.032 15.3492 129.248C15.3492 126.488 18.1572 124.568 22.7892 124.568C27.4212 124.568 30.2532 126.488 30.2532 129.248ZM22.7892 126.368C19.4292 126.368 17.4372 127.688 17.4372 129.248C17.4372 130.832 19.4292 132.176 22.7892 132.176C26.1252 132.176 28.1172 130.832 28.1172 129.248C28.1172 127.688 26.1252 126.368 22.7892 126.368ZM23.8452 144.704H21.7092V137.456H13.3572V135.704H32.2932V137.456H23.8452V144.704ZM47.9268 137.288L48.1428 139.04C45.9588 139.4 42.5268 139.688 38.2788 139.736H35.6628V131.48H43.5108V127.328H35.5668V125.6H45.6228V133.184H37.7748V137.936H38.3988C41.3268 137.936 45.3828 137.768 47.9268 137.288ZM49.7508 123.704H51.8868V144.68H49.7508V123.704ZM71.0724 123.704H73.1604V144.68H71.0724V123.704ZM68.0484 130.328C68.0484 133.232 65.6004 135.104 62.5524 135.104C59.4564 135.104 57.0804 133.16 57.0804 130.328C57.0804 127.424 59.4804 125.384 62.5524 125.384C65.6484 125.384 68.0484 127.328 68.0484 130.328ZM65.9604 130.304C65.9604 128.384 64.4484 127.16 62.5524 127.16C60.7044 127.16 59.1924 128.48 59.1924 130.304C59.1924 132.104 60.7044 133.328 62.5524 133.328C64.3764 133.328 65.9604 132.128 65.9604 130.304ZM69.9444 139.376C68.0244 139.616 64.9284 139.808 62.2644 139.952C59.8884 140.072 57.6804 140.12 56.0004 140.144L55.6644 138.32C57.6804 138.32 60.1284 138.296 62.6004 138.176C65.5764 138.056 68.0484 137.888 69.7284 137.696L69.9444 139.376ZM95.2467 132.224H90.7107V130.472H95.2467V124.16H97.2867V143.648H95.2467V132.224ZM101.511 144.68H99.4707V123.704H101.511V144.68ZM93.8067 138.656C92.3187 139.016 89.4627 139.304 86.8467 139.352H84.8547V125.96H86.9667V137.528C89.0307 137.528 92.0547 137.312 93.4947 136.904L93.8067 138.656ZM115.608 125.408C115.44 131.048 111.816 134.912 106.368 136.76L105.288 135.08C108.192 134.264 110.448 132.776 111.816 130.832L105.672 131.504L105.24 129.68L112.776 129.152C113.04 128.504 113.232 127.856 113.328 127.16H106.224V125.408H115.608ZM123.432 143.168L122.304 144.896C119.52 144.368 116.136 141.992 115.32 140.192C114.528 142.088 111.36 144.32 108.288 144.896L107.16 143.192C110.544 142.808 114.264 140.264 114.264 137.312V136.376H116.472V137.312C116.472 140.288 120.264 142.76 123.432 143.168ZM120.096 131.504H115.704V129.704H120.096V123.704H122.232V137.672H120.096V131.504ZM145.714 133.808H142.45V144.68H140.338V123.704H142.45V132.056H145.714V133.808ZM138.61 137.984L137.338 139.568C135.466 138.344 133.018 135.728 132.226 133.304C131.506 135.848 129.418 138.512 127.042 140.096L125.722 138.512C128.89 136.52 131.122 132.872 131.122 129.008V125.504H133.306V128.912C133.306 132.848 135.658 136.16 138.61 137.984ZM148.244 127.352V125.624H159.74V127.352H155.108V128.216C155.108 131.192 157.82 133.76 160.196 134.504L159.02 136.208C157.148 135.464 154.94 133.448 154.052 131.528C153.38 133.544 151.004 135.872 148.844 136.76L147.572 135.08C150.308 134.096 152.948 131.192 152.948 128.264V127.352H148.244ZM165.14 144.056H151.004V137.552H153.14V142.352H165.14V144.056ZM164.684 138.944H162.548V123.704H164.684V138.944ZM187.637 134.384H168.701V132.656H187.637V134.384ZM186.053 144.536H170.861V139.4H183.149V137.888H170.813V136.16H185.261V140.984H172.973V142.784H186.053V144.536ZM185.453 127.712C185.453 130.064 182.741 131.408 178.181 131.408C173.669 131.408 170.957 130.064 170.957 127.712C170.957 125.336 173.669 123.992 178.181 123.992C182.741 123.992 185.453 125.336 185.453 127.712ZM178.181 125.696C175.109 125.696 173.165 126.512 173.165 127.712C173.165 128.888 175.109 129.704 178.181 129.704C181.301 129.704 183.269 128.888 183.269 127.712C183.269 126.512 181.301 125.696 178.181 125.696ZM20.3808 175.424H10.5648V161.816H20.3808V175.424ZM18.2448 173.72V163.544H12.6768V173.72H18.2448ZM29.4528 169.784H26.0928V180.68H23.9568V159.704H26.0928V168.032H29.4528V169.784ZM50.0544 171.464H31.1184V169.736H50.0544V171.464ZM47.7504 180.392H33.4224V173.504H47.7504V180.392ZM45.6384 178.712V175.184H35.5584V178.712H45.6384ZM47.7984 164.216C47.7984 166.616 45.1584 168.224 40.5744 168.224C36.0144 168.224 33.3744 166.616 33.3744 164.216C33.3744 161.816 36.0144 160.232 40.5744 160.232C45.1584 160.232 47.7984 161.816 47.7984 164.216ZM45.5904 164.216C45.5904 162.848 43.6704 161.936 40.5744 161.936C37.5024 161.936 35.6064 162.848 35.6064 164.216C35.6064 165.584 37.5024 166.496 40.5744 166.496C43.6224 166.496 45.5904 165.584 45.5904 164.216ZM67.464 167.672H64.272V165.896H67.464V159.704H69.552V173.672H67.464V167.672ZM58.464 161.312C58.464 165.944 56.328 168.848 53.616 170.888L52.152 169.52C54.792 167.888 56.136 165.392 56.376 163.064H52.944V161.312H58.464ZM64.152 161.312C64.152 166.232 62.496 169.64 59.472 172.04L57.936 170.672C60.672 168.824 61.968 165.704 62.064 163.064H59.256V161.312H64.152ZM70.728 179.168L69.6 180.896C66.816 180.368 63.456 177.944 62.64 176.144C61.872 178.064 58.632 180.32 55.56 180.896L54.456 179.192C57.864 178.808 61.584 176.336 61.584 173.312V172.4H63.768V173.312C63.768 176.288 67.56 178.76 70.728 179.168ZM96.8703 180.392H82.7343V173.552H96.8703V180.392ZM97.4463 167.672H90.5343V160.424H92.5263V162.44H95.4783V160.424H97.4463V167.672ZM88.9983 167.672H82.1343V160.424H84.1263V162.44H87.0303V160.424H88.9983V167.672ZM99.2703 171.896H80.3343V170.144H88.6863V168.2H90.8223V170.144H99.2703V171.896ZM94.7343 178.688V175.256H84.8703V178.688H94.7343ZM95.4783 165.992V164.12H92.5263V165.992H95.4783ZM87.0303 165.992V164.12H84.1263V165.992H87.0303ZM119.272 180.68H117.232V169.64H114.664V179.648H112.648V160.16H114.664V167.888H117.232V159.704H119.272V180.68ZM111.496 174.392C109.984 174.752 106.96 175.016 104.392 175.064H102.376V162.032H104.512V173.264C106.552 173.264 109.744 173.048 111.184 172.64C111.304 173.216 111.4 173.816 111.496 174.392ZM139.418 172.256H133.274V176.384H141.722V178.112H122.786V176.384H131.138V172.256H125.066V161.168H127.202V164.984H137.306V161.168H139.418V172.256ZM137.306 170.504V166.712H127.202V170.504H137.306ZM163.571 169.784H160.211V180.68H158.075V159.704H160.211V168.032H163.571V169.784ZM144.323 168.608C144.323 164.456 145.955 161.192 149.651 161.192C153.347 161.192 154.955 164.456 154.955 168.632C154.955 172.76 153.347 176.024 149.651 176.024C145.955 176.024 144.323 172.76 144.323 168.608ZM152.867 168.632C152.867 165.368 151.763 163.016 149.651 163.016C147.539 163.016 146.459 165.368 146.459 168.632C146.459 171.848 147.539 174.2 149.651 174.2C151.763 174.2 152.867 171.848 152.867 168.632ZM182.517 166.544C182.517 169.808 179.397 171.968 174.693 171.968C170.013 171.968 166.893 169.808 166.893 166.544C166.893 163.28 170.013 161.096 174.693 161.096C179.421 161.096 182.517 163.28 182.517 166.544ZM180.333 166.544C180.333 164.336 178.101 162.848 174.693 162.848C171.309 162.848 169.077 164.336 169.077 166.544C169.077 168.728 171.309 170.216 174.693 170.216C178.077 170.216 180.333 168.728 180.333 166.544ZM184.173 178.016H165.237V176.288H169.773V172.568L171.909 172.496V176.288H177.453V172.496L179.565 172.568V176.288H184.173V178.016ZM187.878 174.176L187.614 161.096H189.942L189.678 174.176H187.878ZM187.638 178.4V176.072H189.966V178.4H187.638Z" fill="white"/>
<path d="M16.9003 80.7227C16.5202 79.7766 15.8571 79.0892 14.8949 78.6607C13.9407 78.2321 12.5822 78.0138 10.8356 78.0138C9.08895 78.0138 7.6981 78.224 6.75201 78.6364C5.80591 79.0569 5.33691 79.6715 5.33691 80.4801C5.33691 81.1027 5.48248 81.5636 5.78167 81.8709C6.08086 82.1782 6.57413 82.4451 7.27763 82.6634C7.98114 82.8817 8.97573 83.0839 10.2695 83.2699L12.9784 83.6742C15.3235 84.0219 17.1429 84.4585 18.4367 84.9841C19.7305 85.5097 20.6523 86.1728 21.2102 86.9653C21.7601 87.7577 22.0351 88.7766 22.0351 90.0138C22.0351 92.1971 21.1375 93.8467 19.3423 94.9626C17.5472 96.0785 14.903 96.6445 11.4016 96.6445C7.90026 96.6445 5.22371 96.0623 3.37196 94.906C1.52829 93.7496 0.404313 91.9706 0 89.569H4.73044C5.07815 90.7254 5.77358 91.5663 6.80862 92.0919C7.84366 92.6175 9.34772 92.8763 11.3208 92.8763C15.2588 92.8763 17.2237 92.003 17.2237 90.2483C17.2237 89.4639 16.8598 88.8898 16.1321 88.5097C15.4043 88.1297 14.0539 87.7981 12.0889 87.499L9.38004 87.0946C7.11589 86.7712 5.35309 86.3426 4.08355 85.8008C2.81401 85.2591 1.92451 84.5717 1.39891 83.7388C0.8733 82.906 0.606469 81.8386 0.606469 80.5448C0.606469 78.6041 1.51211 77.0838 3.3396 75.976C5.15901 74.8682 7.65768 74.3184 10.8356 74.3184C14.0135 74.3184 16.407 74.7793 18.097 75.7092C19.779 76.6391 20.9191 78.1431 21.5175 80.2213L16.9083 80.7065L16.9003 80.7227Z" fill="white"/>
<path d="M27.1299 103.849V74.9814H31.9008V78.4585C32.8711 77.1647 34.1407 76.1539 35.7013 75.4261C37.262 74.6984 39.0005 74.3345 40.9169 74.3345C42.9628 74.3345 44.7741 74.7792 46.359 75.6687C47.9358 76.5582 49.173 77.8358 50.0787 79.5097C50.9844 81.1835 51.4291 83.1242 51.4291 85.3318C51.4291 87.5393 50.9843 89.4234 50.0949 91.1296C49.2054 92.8439 47.9277 94.1862 46.2539 95.1728C44.58 96.1593 42.6393 96.6526 40.4318 96.6526C36.7364 96.6526 33.9223 95.4153 31.9816 92.9329V103.849H27.1299ZM31.9412 86.0595C31.9412 87.9436 32.5719 89.5609 33.8415 90.9113C35.0544 92.2051 36.793 92.852 39.0571 92.852C41.483 92.852 43.3186 92.2213 44.5558 90.9517C45.793 89.6822 46.4156 87.8385 46.4156 85.4127C46.4156 83.1242 45.793 81.3372 44.5396 80.0596C43.2862 78.7819 41.5396 78.135 39.2997 78.135C38.2727 78.135 37.2781 78.3291 36.3078 78.7253C35.3374 79.1134 34.5126 79.6471 33.8415 80.3183C33.2188 80.9409 32.7498 81.6364 32.4264 82.4207C32.1029 83.2051 31.9412 84.0137 31.9412 84.8466V86.0595Z" fill="white"/>
<path d="M73.019 96.0055V92.9731C71.7818 94.2103 70.4314 95.124 68.9758 95.7062C67.5203 96.2885 65.806 96.5796 63.8411 96.5796C61.116 96.5796 59.0136 96.0216 57.5338 94.8976C56.054 93.7817 55.3101 92.1968 55.3101 90.1429C55.3101 87.8545 56.2723 86.1483 58.1969 85.0243C60.1214 83.9084 63.1618 83.2777 67.3101 83.1402L72.8896 82.9785V82.2911C72.8896 79.4367 71.0055 78.0054 67.2292 78.0054C65.3936 78.0054 63.9785 78.2238 62.9839 78.6766C61.9893 79.1213 61.3424 79.8006 61.0432 80.7143L56.7171 80.2292C57.2022 78.2076 58.3101 76.7197 60.0324 75.7575C61.7548 74.8033 64.213 74.3262 67.3909 74.3262C70.8114 74.3262 73.3586 74.9973 75.0163 76.3477C76.674 77.6981 77.4988 79.7602 77.4988 82.5337V95.9974H73.0109L73.019 96.0055ZM72.8977 86.1806L67.399 86.3424C64.868 86.4232 63.0405 86.7305 61.9246 87.2723C60.8087 87.8141 60.2427 88.6308 60.2427 89.7386C60.2427 90.7332 60.6712 91.5095 61.5365 92.0674C62.4017 92.6173 63.5985 92.8922 65.1349 92.8922C66.2912 92.8922 67.4071 92.7224 68.4664 92.3909C69.5338 92.0513 70.4556 91.5742 71.2319 90.9596C72.3397 90.1267 72.8896 89.0027 72.8896 87.6038V86.1887L72.8977 86.1806Z" fill="white"/>
<path d="M105.687 88.6471C105.283 91.2105 104.127 93.1835 102.21 94.5743C100.294 95.9652 97.7872 96.6606 94.6901 96.6606C90.8896 96.6606 87.93 95.6821 85.8114 93.7334C83.6928 91.7765 82.6416 89.0514 82.6416 85.5501C82.6416 83.3102 83.1187 81.3533 84.0729 79.6633C85.0271 77.9813 86.426 76.6713 88.2535 75.7414C90.089 74.8115 92.2562 74.3506 94.7629 74.3506C97.674 74.3506 100.035 74.9732 101.855 76.2266C103.674 77.48 104.822 79.2832 105.307 81.6282L100.375 82.2751C99.6227 79.5258 97.7306 78.1511 94.7144 78.1511C92.4745 78.1511 90.736 78.79 89.4988 80.0757C88.2616 81.3533 87.6389 83.1565 87.6389 85.4773C87.6389 87.798 88.2535 89.7064 89.4826 90.976C90.7117 92.2455 92.4826 92.8762 94.7952 92.8762C98.1672 92.8762 100.156 91.4773 100.779 88.6714H105.671L105.687 88.6471Z" fill="white"/>
<path d="M114.3 86.7065C114.356 88.6472 115.035 90.1916 116.337 91.3318C117.647 92.48 119.362 93.0461 121.496 93.0461C123.17 93.0461 124.537 92.7711 125.596 92.2213C126.663 91.6714 127.399 90.8547 127.804 89.7711H132.615C132.025 92.0919 130.804 93.8143 128.96 94.9463C127.116 96.0784 124.61 96.6445 121.456 96.6445C117.76 96.6445 114.857 95.666 112.747 93.7172C110.628 91.7604 109.577 89.0919 109.577 85.6957C109.577 83.4881 110.054 81.5231 111.008 79.8089C111.963 78.0946 113.337 76.7604 115.132 75.79C116.928 74.8197 119.022 74.3345 121.415 74.3345C125.054 74.3345 127.876 75.2725 129.89 77.1404C131.895 79.0164 132.906 81.6364 132.906 85.0003V86.6984H114.308L114.3 86.7065ZM128.248 83.472C128.192 81.693 127.569 80.3102 126.364 79.3318C125.167 78.3453 123.502 77.852 121.375 77.852C119.459 77.852 117.874 78.3534 116.62 79.3722C115.367 80.383 114.631 81.7496 114.413 83.48H128.24L128.248 83.472Z" fill="white"/>
<path d="M138.194 103.849V74.9814H142.965V78.4585C143.935 77.1647 145.205 76.1539 146.766 75.4261C148.326 74.6984 150.065 74.3345 151.981 74.3345C154.027 74.3345 155.846 74.7792 157.415 75.6687C158.992 76.5582 160.229 77.8358 161.135 79.5097C162.041 81.1835 162.485 83.1242 162.485 85.3318C162.485 87.5393 162.04 89.4234 161.151 91.1296C160.262 92.8439 158.984 94.1862 157.31 95.1728C155.636 96.1593 153.695 96.6526 151.488 96.6526C147.793 96.6526 144.978 95.4153 143.038 92.9329V103.849H138.186H138.194ZM143.005 86.0595C143.005 87.9436 143.636 89.5609 144.906 90.9113C146.119 92.2051 147.857 92.852 150.121 92.852C152.547 92.852 154.383 92.2213 155.62 90.9517C156.857 89.6822 157.48 87.8385 157.48 85.4127C157.48 83.1242 156.857 81.3372 155.596 80.0596C154.342 78.7819 152.596 78.135 150.364 78.135C149.337 78.135 148.342 78.3291 147.372 78.7253C146.402 79.1215 145.577 79.6471 144.906 80.3183C144.283 80.9409 143.814 81.6364 143.491 82.4207C143.167 83.2051 143.005 84.0137 143.005 84.8466V86.0595Z" fill="white"/>
<path d="M167.79 96.0052V74.981H172.642V96.0052H167.79Z" fill="white"/>
<path d="M200.984 88.6471C200.58 91.2105 199.423 93.1835 197.507 94.5743C195.59 95.9652 193.084 96.6606 189.987 96.6606C186.186 96.6606 183.226 95.6821 181.116 93.7334C178.997 91.7765 177.938 89.0514 177.938 85.5501C177.938 83.3102 178.415 81.3533 179.377 79.6633C180.332 77.9813 181.73 76.6713 183.558 75.7414C185.385 74.8115 187.561 74.3506 190.067 74.3506C192.978 74.3506 195.348 74.9732 197.167 76.2266C198.987 77.48 200.135 79.2832 200.628 81.6282L195.695 82.2751C194.943 79.5258 193.051 78.1511 190.035 78.1511C187.795 78.1511 186.057 78.79 184.819 80.0757C183.582 81.3533 182.96 83.1565 182.96 85.4773C182.96 87.798 183.574 89.7064 184.803 90.976C186.032 92.2455 187.803 92.8762 190.124 92.8762C193.496 92.8762 195.485 91.4773 196.108 88.6714H201L200.984 88.6471Z" fill="white"/>
<path d="M170.216 61L171.631 65.3585H176.207L172.504 68.0431L173.919 72.4016L170.216 69.7089L166.512 72.4016L167.927 68.0431L164.224 65.3585H168.8L170.216 61Z" fill="#DFFE01"/>
<path d="M174.051 14.9899C171.828 14.9899 170.01 13.1717 170.01 10.9495V1H168.327V10.9495C168.327 13.1717 166.508 14.9899 164.286 14.9899H154V17.0101H164.286C166.508 17.0101 168.327 18.8283 168.327 21.0505V31H170.01V21.0505C170.01 18.8283 171.828 17.0101 174.051 17.0101H184V14.9899H174.051Z" fill="#33C87E"/>
<path d="M100.022 30.5823L99.9707 16.4309L90.8775 27.2753L99.9365 16.4016L86 18.8611L99.9292 16.3552L87.6706 9.28193L99.9512 16.3161L95.1078 3.0171L99.9951 16.3015L104.831 3L100.037 16.3161L112.293 9.23796L100.061 16.3552L114 18.8098L100.054 16.4016L109.152 27.2411L100.017 16.4309L100.022 30.5823Z" fill="white" stroke="#FF3CE6" stroke-width="3" stroke-miterlimit="10"/>
<path d="M33.0014 0L35.7778 8.74655L43.4444 3.86002L40.0358 12.3719L49 13.6331L40.9993 17.9286L47.0701 24.7466L38.2229 22.8151L38.557 32L33.0014 24.7466L27.443 32L27.7799 22.8151L18.9299 24.7466L25.0007 17.9286L17 13.6331L25.967 12.3719L22.5584 3.86002L30.2222 8.74655L33.0014 0Z" fill="#734BFB"/>
</svg>
