<svg width="639" height="200" viewBox="0 0 639 200" fill="none" xmlns="http://www.w3.org/2000/svg">
<path d="M15.7914 19.5888H14.1142V0.300671H15.7914V19.5888ZM0.563994 8.55438C0.563994 4.49373 2.37363 1.75721 5.52946 1.75721C8.72943 1.75721 10.517 4.49373 10.517 8.57645C10.517 12.6592 8.72943 15.3957 5.52946 15.3957C2.37363 15.3957 0.563994 12.6592 0.563994 8.55438ZM8.92805 8.57645C8.92805 5.39855 7.58186 3.21375 5.52946 3.21375C3.49914 3.21375 2.15294 5.39855 2.15294 8.57645C2.15294 11.7323 3.49914 13.9392 5.52946 13.9392C7.58186 13.9392 8.92805 11.7323 8.92805 8.57645ZM33.5215 7.23026H30.145V5.81786H33.5215V0.300671H35.1987V14.3585H33.5215V7.23026ZM35.6842 18.9488H22.6857V13.0785H24.363V17.5584H35.6842V18.9488ZM29.1298 11.3792H20.1699V1.58066H21.8692V5.08959H27.4305V1.58066H29.1298V11.3792ZM27.4305 9.98885V6.47992H21.8692V9.98885H27.4305ZM55.555 8.06887L54.7605 9.48127C51.6046 8.92955 48.5371 6.9875 47.6543 5.17786C46.8819 6.9875 43.8806 8.97369 40.5923 9.52541L39.8199 8.11301C42.9758 7.78198 46.7054 5.75165 46.7937 3.05926H40.5482V1.66893H54.7605V3.05926H48.5592C48.6474 5.77372 52.5977 7.73784 55.555 8.06887ZM48.4709 19.5888H46.7937V12.6812H38.9593V11.2688H56.3715V12.6812H48.4709V19.5888ZM74.4295 1.82341C74.253 7.3406 70.9647 10.7171 65.9331 12.3061L65.0724 10.9819C68.0517 10.1654 70.2144 8.59852 71.4282 6.61233L65.3593 7.23026L64.9841 5.72958L72.1123 5.24407C72.3551 4.60408 72.5096 3.94201 72.5978 3.23582H65.911V1.82341H74.4295ZM78.7771 7.73784H74.5399V6.32544H78.7771V0.300671H80.4543V14.3143H78.7771V7.73784ZM80.9177 19.1253H67.9193V13.0343H69.5965V17.7129H80.9177V19.1253ZM100.48 19.3239H87.812V11.8426H89.5113V14.204H98.7802V11.7764H100.48V19.3239ZM98.7802 17.9557V15.5722H89.5113V17.9557H98.7802ZM100.48 10.7392H98.8023V0.300671H100.48V10.7392ZM96.8161 10.7392H95.2051V5.83993H92.3141V4.42753H95.2051V0.631702H96.8161V10.7392ZM93.9472 9.01783L92.9541 10.2537C91.6299 9.56955 89.732 7.82611 89.1803 6.32544C88.6507 7.91439 87.2162 9.72403 85.2521 10.8275L84.2148 9.61368C86.5762 8.42197 88.3196 6.19303 88.3196 3.3903V1.40411H89.9527V3.34616C89.9527 6.14889 92.0934 8.06887 93.9472 9.01783ZM126.549 8.06887L125.754 9.48127C122.598 8.92955 119.531 6.9875 118.648 5.17786C117.875 6.9875 114.874 8.97369 111.586 9.52541L110.813 8.11301C113.969 7.78198 117.699 5.75165 117.787 3.05926H111.542V1.66893H125.754V3.05926H119.553C119.641 5.77372 123.591 7.73784 126.549 8.06887ZM119.464 19.5888H117.787V12.6812H109.953V11.2688H127.365V12.6812H119.464V19.5888ZM139.313 13.8067L138.254 15.0426C136.886 14.0716 134.855 11.8206 134.303 9.79023C133.906 11.9309 132.163 14.2261 130.287 15.5502L129.161 14.3805C131.435 12.924 133.465 9.87851 133.465 6.12682V3.96408H129.625V2.57375H138.828V3.96408H135.12V6.08268C135.12 9.87851 136.93 12.2619 139.313 13.8067ZM141.917 18.6177H140.262V8.77507H137.172V7.38474H140.262V0.764114H141.917V18.6177ZM145.735 19.5888H144.08V0.300671H145.735V19.5888ZM150.356 7.64956V5.66338H152.254V7.64956H150.356ZM150.356 15.7709V13.7626H152.254V15.7709H150.356ZM177.086 2.41927V4.89097C177.064 7.47301 176.777 11.8868 176.203 14.3364L174.592 14.1157C174.791 13.2109 175.034 11.2247 175.166 9.21645L163.757 9.8123L163.426 8.3337L175.254 7.91439C175.299 7.14198 175.343 6.43578 175.343 5.79579V3.8096H164.021V2.41927H177.086ZM179.315 16.786H161.903V15.3736H179.315V16.786ZM195.589 0.300671H197.266V19.5888H195.589V0.300671ZM193.823 12.9461L193.978 14.3364C191.969 14.6454 188.659 14.9764 184.422 14.9764H182.458V7.53922H189.762V3.47857H182.369V2.08824H191.462V8.92955H184.135V13.5419H184.598C187.666 13.5419 191.484 13.3654 193.823 12.9461ZM217.71 10.2316L216.783 11.644C213.539 10.673 210.406 7.93646 209.611 5.97234C208.927 7.93646 205.859 10.673 202.505 11.6219L201.622 10.1875C204.756 9.56955 208.773 6.59026 208.773 3.43443V1.91169H210.516V3.43443C210.516 6.59026 214.753 9.56955 217.71 10.2316ZM218.35 16.9405H200.938V15.5281H218.35V16.9405ZM230.078 14.7336H221.052V2.28686H230.078V14.7336ZM228.401 13.3433V3.67719H222.729V13.3433H228.401ZM238.442 9.48127H235.286V19.5888H233.609V0.300671H235.286V8.06887H238.442V9.48127ZM256.746 10.2316L255.819 11.644C252.575 10.673 249.441 7.93646 248.646 5.97234C247.962 7.93646 244.895 10.673 241.54 11.6219L240.658 10.1875C243.791 9.56955 247.808 6.59026 247.808 3.43443V1.91169H249.551V3.43443C249.551 6.59026 253.788 9.56955 256.746 10.2316ZM257.386 16.9405H239.973V15.5281H257.386V16.9405ZM265.251 1.55859C268.23 1.55859 270.503 3.3903 270.503 6.19303C270.503 8.73093 268.65 10.4302 266.112 10.7613V13.895C268.274 13.7626 270.238 13.6302 271.474 13.4536L271.607 14.7998C270.084 15.0205 267.436 15.2191 265.096 15.3736C262.978 15.484 261.08 15.5502 259.469 15.5502L259.16 14.0716C260.594 14.0716 262.47 14.0716 264.434 13.9833V10.7613C261.874 10.4744 260.021 8.77507 260.021 6.2151C260.021 3.41236 262.272 1.55859 265.251 1.55859ZM265.251 2.99306C263.154 2.99306 261.654 4.25098 261.654 6.2151C261.654 8.15715 263.176 9.393 265.251 9.393C267.414 9.393 268.848 8.15715 268.848 6.23716C268.848 4.25098 267.436 2.99306 265.251 2.99306ZM277.455 9.79023H274.365V19.5888H272.666V0.300671H274.365V8.37783H277.455V9.79023ZM300.699 16.2122C300.699 18.3308 298.25 19.5446 293.924 19.5446C289.621 19.5446 287.193 18.3088 287.193 16.2122C287.193 14.1598 289.621 12.924 293.924 12.924C298.25 12.924 300.699 14.0716 300.699 16.2122ZM301.781 6.74475L301.008 8.15715C297.786 7.6275 294.895 5.9282 293.924 4.1627C293.174 5.95027 290.305 7.67163 286.906 8.15715L286.134 6.76681C289.113 6.47992 292.401 4.95718 292.975 2.6841H286.818V1.29376H301.052V2.6841H294.917C295.535 4.97925 299.088 6.47992 301.781 6.74475ZM293.924 14.2702C290.812 14.2702 288.892 14.9764 288.892 16.2122C288.892 17.4922 290.812 18.1764 293.924 18.1764C297.058 18.1764 299 17.4922 299 16.2122C299 14.9764 297.058 14.2702 293.924 14.2702ZM302.641 11.3571H285.229V9.94471H293.085V7.03164H294.763V9.94471H302.641V11.3571ZM322.512 7.11991H319.577V12.1737H317.9V0.300671H319.577V5.72958H322.512V7.11991ZM319.82 15.8371C319.82 18.1322 317.392 19.5446 313.331 19.5446C309.293 19.5446 306.887 18.1322 306.887 15.8371C306.887 13.5419 309.293 12.1295 313.331 12.1295C317.392 12.1295 319.82 13.5419 319.82 15.8371ZM313.331 13.4978C310.418 13.4978 308.609 14.3585 308.609 15.8371C308.609 17.3157 310.418 18.1543 313.331 18.1543C316.266 18.1543 318.098 17.3157 318.098 15.8371C318.098 14.3585 316.266 13.4978 313.331 13.4978ZM305.453 1.80135H314.391C314.104 6.85509 310.418 10.4082 305.497 11.9088L304.636 10.5185C308.432 9.67989 312.007 6.54613 312.493 3.23582H305.453V1.80135ZM341.676 10.0551H324.264V8.64266H341.676V10.0551ZM339.734 3.91995C339.734 6.03855 337.174 7.25233 332.981 7.25233C328.832 7.25233 326.272 6.03855 326.272 3.91995C326.272 1.80135 328.832 0.565495 332.981 0.565495C337.174 0.565495 339.734 1.80135 339.734 3.91995ZM332.981 1.93376C329.958 1.93376 327.994 2.70616 327.994 3.91995C327.994 5.11166 329.958 5.862 332.981 5.862C336.049 5.862 338.035 5.11166 338.035 3.91995C338.035 2.70616 336.049 1.93376 332.981 1.93376ZM340.132 19.4122H326.295V14.8219H337.814V13.1226H326.25V11.7764H339.492V16.1019H327.972V18.0439H340.132V19.4122ZM365.759 19.5888H364.082V0.300671H365.759V19.5888ZM360.088 2.35306C359.999 8.62059 356.159 13.4095 351.172 15.7709L350.201 14.4467C355.078 12.3061 357.947 8.11301 358.3 3.76546H350.907V2.35306H360.088ZM384.394 0.300671V7.95853H387.528V9.37093H384.394V19.5888H382.717V0.300671H384.394ZM371.969 13.4316H373.073C375.567 13.4316 379.385 13.2109 381.238 12.8137L381.415 14.204C379.34 14.6012 375.522 14.866 372.168 14.866H370.27V2.30893H379.429V3.72133H371.969V13.4316ZM403.206 0.300671H404.883V19.5888H403.206V0.300671ZM401.44 12.9461L401.595 14.3364C399.586 14.6454 396.276 14.9764 392.039 14.9764H390.075V7.53922H397.379V3.47857H389.986V2.08824H399.079V8.92955H391.752V13.5419H392.215C395.283 13.5419 399.101 13.3654 401.44 12.9461ZM425.967 11.6661H408.555V10.2537H425.967V11.6661ZM424.114 19.1695H410.828V13.4757H412.505V17.7791H424.114V19.1695ZM424.025 7.84818H410.894V1.11721H412.572V6.45785H424.025V7.84818ZM448.439 5.99441H444.533V4.60408H448.439V0.300671H450.116V19.5888H448.439V12.1957H444.533V10.8054H448.439V5.99441ZM434.403 8.46611C434.403 4.38339 436.125 1.64686 439.17 1.64686C442.26 1.64686 443.959 4.38339 443.959 8.48818C443.959 12.5709 442.26 15.2854 439.17 15.2854C436.125 15.2854 434.403 12.5709 434.403 8.46611ZM442.304 8.48818C442.304 5.31028 441.068 3.1034 439.17 3.1034C437.316 3.1034 436.059 5.31028 436.059 8.48818C436.059 11.6219 437.316 13.8288 439.17 13.8288C441.068 13.8288 442.304 11.6219 442.304 8.48818ZM469.546 19.5888H467.868V9.26058H464.404V7.82611H467.868V0.300671H469.546V19.5888ZM464.757 12.9902L464.933 14.3805C462.947 14.7336 458.732 15.0205 455.863 15.0205H454.473V7.49508H461.579V3.52271H454.473V2.13238H463.256V8.90748H456.15V13.5861C458.666 13.5861 462.351 13.4095 464.757 12.9902ZM488.534 8.28956H475.513V0.918596H477.19V3.30202H486.834V0.918596H488.534V8.28956ZM482.84 15.5502H481.163V11.8426H473.328V10.4523H490.741V11.8426H482.84V15.5502ZM488.798 18.9708H475.535V13.7405H477.212V17.5805H488.798V18.9708ZM486.834 6.87716V4.69235H477.19V6.87716H486.834ZM510.258 10.0551H492.846V8.64266H510.258V10.0551ZM508.316 3.91995C508.316 6.03855 505.756 7.25233 501.563 7.25233C497.414 7.25233 494.854 6.03855 494.854 3.91995C494.854 1.80135 497.414 0.565495 501.563 0.565495C505.756 0.565495 508.316 1.80135 508.316 3.91995ZM501.563 1.93376C498.54 1.93376 496.576 2.70616 496.576 3.91995C496.576 5.11166 498.54 5.862 501.563 5.862C504.631 5.862 506.617 5.11166 506.617 3.91995C506.617 2.70616 504.631 1.93376 501.563 1.93376ZM508.713 19.4122H494.876V14.8219H506.396V13.1226H494.832V11.7764H508.073V16.1019H496.553V18.0439H508.713V19.4122ZM535.996 17.1391H518.584V15.7267H523.307V11.6219H524.984V15.7267H529.552V11.6219H531.229V15.7267H535.996V17.1391ZM534.209 10.6288H520.283V9.21645H523.307L522.799 4.53787L524.542 4.36132L524.896 9.21645H529.64L530.214 4.38339L531.869 4.64821L531.207 9.21645H534.209V10.6288ZM534.231 3.41236H520.261V1.99996H534.231V3.41236ZM554.278 18.9488H541.324V13.873H543.001V17.5584H554.278V18.9488ZM548.959 7.31853V5.95027H552.181V0.300671H553.859V14.7778H552.181V11.1585H548.959V9.79023H552.181V7.31853H548.959ZM546.466 2.46341H540.904V0.962733H546.466V2.46341ZM549.158 5.33235H538.168V3.96408H549.158V5.33235ZM548.341 9.61368C548.341 11.6219 546.377 12.9681 543.751 12.9681C541.169 12.9681 539.161 11.6219 539.161 9.61368C539.161 7.56129 541.147 6.2813 543.751 6.2813C546.377 6.2813 548.341 7.56129 548.341 9.61368ZM546.708 9.61368C546.708 8.3999 545.384 7.6275 543.751 7.6275C542.118 7.6275 540.816 8.3999 540.816 9.61368C540.816 10.8275 542.118 11.5999 543.751 11.5999C545.384 11.5999 546.708 10.8275 546.708 9.61368ZM573.884 19.5888H572.229V9.59161H569.911V18.6177H568.278V0.764114H569.911V8.17921H572.229V0.300671H573.884V19.5888ZM566.822 11.3571C566.822 13.6743 565.1 15.1971 562.607 15.1971C560.135 15.1971 558.392 13.564 558.392 11.3571C558.392 9.01783 560.135 7.49508 562.607 7.49508C565.1 7.49508 566.822 9.0399 566.822 11.3571ZM565.211 11.3571C565.211 9.87851 564.129 8.90748 562.607 8.90748C561.084 8.90748 560.025 9.87851 560.025 11.3571C560.025 12.8578 561.084 13.8067 562.607 13.8067C564.129 13.8067 565.211 12.8137 565.211 11.3571ZM567.175 6.39165H557.575V5.00131H567.175V6.39165ZM565.1 3.23582H559.826V1.77928H565.1V3.23582ZM593.732 8.06887L592.938 9.48127C589.782 8.92955 586.715 6.9875 585.832 5.17786C585.059 6.9875 582.058 8.97369 578.77 9.52541L577.997 8.11301C581.153 7.78198 584.883 5.75165 584.971 3.05926H578.726V1.66893H592.938V3.05926H586.737C586.825 5.77372 590.775 7.73784 593.732 8.06887ZM586.648 19.5888H584.971V12.6812H577.137V11.2688H594.549V12.6812H586.648V19.5888ZM612.985 19.5888H611.33V0.300671H612.985V19.5888ZM609.167 18.6177H607.534V8.66473H604.114V7.25233H607.534V0.764114H609.167V18.6177ZM606.365 13.4978L605.327 14.7336C603.849 13.6743 601.818 11.3792 601.201 9.19438C600.781 11.4013 599.192 13.9171 597.272 15.3074L596.235 14.0495C598.42 12.6592 600.362 9.37093 600.362 5.59717V2.08824H602.017V5.55303C602.017 9.30472 604.268 12.1075 606.365 13.4978ZM631.819 6.59026C631.819 9.56955 629.038 11.5557 624.845 11.5557C620.696 11.5557 617.915 9.56955 617.915 6.59026C617.915 3.61098 620.696 1.58066 624.845 1.58066C629.06 1.58066 631.819 3.61098 631.819 6.59026ZM630.208 6.59026C630.208 4.42753 628.089 2.97099 624.845 2.97099C621.645 2.97099 619.526 4.42753 619.526 6.59026C619.526 8.753 621.645 10.2095 624.845 10.2095C628.067 10.2095 630.208 8.753 630.208 6.59026ZM633.584 17.1391H616.172V15.7267H620.475V12.1295L622.153 12.0854V15.7267H627.537V12.0854L629.215 12.1295V15.7267H633.584V17.1391ZM637.08 13.7847L636.815 1.51445H638.823L638.559 13.7847H637.08ZM636.881 17.5364V15.5722H638.779V17.5364H636.881Z" fill="white"/>

</svg>
