<svg width="209" height="189" viewBox="0 0 209 189" fill="none" xmlns="http://www.w3.org/2000/svg">
<path d="M31.2532 128.248C31.2532 131.032 28.4212 132.976 23.7892 132.976C19.1572 132.976 16.3492 131.032 16.3492 128.248C16.3492 125.488 19.1572 123.568 23.7892 123.568C28.4212 123.568 31.2532 125.488 31.2532 128.248ZM23.7892 125.368C20.4292 125.368 18.4372 126.688 18.4372 128.248C18.4372 129.832 20.4292 131.176 23.7892 131.176C27.1252 131.176 29.1172 129.832 29.1172 128.248C29.1172 126.688 27.1252 125.368 23.7892 125.368ZM24.8452 143.704H22.7092V136.456H14.3572V134.704H33.2932V136.456H24.8452V143.704ZM48.9268 136.288L49.1428 138.04C46.9588 138.4 43.5268 138.688 39.2788 138.736H36.6628V130.48H44.5108V126.328H36.5668V124.6H46.6228V132.184H38.7748V136.936H39.3988C42.3268 136.936 46.3828 136.768 48.9268 136.288ZM50.7508 122.704H52.8868V143.68H50.7508V122.704ZM72.0724 122.704H74.1604V143.68H72.0724V122.704ZM69.0484 129.328C69.0484 132.232 66.6004 134.104 63.5524 134.104C60.4564 134.104 58.0804 132.16 58.0804 129.328C58.0804 126.424 60.4804 124.384 63.5524 124.384C66.6484 124.384 69.0484 126.328 69.0484 129.328ZM66.9604 129.304C66.9604 127.384 65.4484 126.16 63.5524 126.16C61.7044 126.16 60.1924 127.48 60.1924 129.304C60.1924 131.104 61.7044 132.328 63.5524 132.328C65.3764 132.328 66.9604 131.128 66.9604 129.304ZM70.9444 138.376C69.0244 138.616 65.9284 138.808 63.2644 138.952C60.8884 139.072 58.6804 139.12 57.0004 139.144L56.6644 137.32C58.6804 137.32 61.1284 137.296 63.6004 137.176C66.5764 137.056 69.0484 136.888 70.7284 136.696L70.9444 138.376ZM96.2467 131.224H91.7107V129.472H96.2467V123.16H98.2867V142.648H96.2467V131.224ZM102.511 143.68H100.471V122.704H102.511V143.68ZM94.8067 137.656C93.3187 138.016 90.4627 138.304 87.8467 138.352H85.8547V124.96H87.9667V136.528C90.0307 136.528 93.0547 136.312 94.4947 135.904L94.8067 137.656ZM116.608 124.408C116.44 130.048 112.816 133.912 107.368 135.76L106.288 134.08C109.192 133.264 111.448 131.776 112.816 129.832L106.672 130.504L106.24 128.68L113.776 128.152C114.04 127.504 114.232 126.856 114.328 126.16H107.224V124.408H116.608ZM124.432 142.168L123.304 143.896C120.52 143.368 117.136 140.992 116.32 139.192C115.528 141.088 112.36 143.32 109.288 143.896L108.16 142.192C111.544 141.808 115.264 139.264 115.264 136.312V135.376H117.472V136.312C117.472 139.288 121.264 141.76 124.432 142.168ZM121.096 130.504H116.704V128.704H121.096V122.704H123.232V136.672H121.096V130.504ZM146.714 132.808H143.45V143.68H141.338V122.704H143.45V131.056H146.714V132.808ZM139.61 136.984L138.338 138.568C136.466 137.344 134.018 134.728 133.226 132.304C132.506 134.848 130.418 137.512 128.042 139.096L126.722 137.512C129.89 135.52 132.122 131.872 132.122 128.008V124.504H134.306V127.912C134.306 131.848 136.658 135.16 139.61 136.984ZM149.244 126.352V124.624H160.74V126.352H156.108V127.216C156.108 130.192 158.82 132.76 161.196 133.504L160.02 135.208C158.148 134.464 155.94 132.448 155.052 130.528C154.38 132.544 152.004 134.872 149.844 135.76L148.572 134.08C151.308 133.096 153.948 130.192 153.948 127.264V126.352H149.244ZM166.14 143.056H152.004V136.552H154.14V141.352H166.14V143.056ZM165.684 137.944H163.548V122.704H165.684V137.944ZM188.637 133.384H169.701V131.656H188.637V133.384ZM187.053 143.536H171.861V138.4H184.149V136.888H171.813V135.16H186.261V139.984H173.973V141.784H187.053V143.536ZM186.453 126.712C186.453 129.064 183.741 130.408 179.181 130.408C174.669 130.408 171.957 129.064 171.957 126.712C171.957 124.336 174.669 122.992 179.181 122.992C183.741 122.992 186.453 124.336 186.453 126.712ZM179.181 124.696C176.109 124.696 174.165 125.512 174.165 126.712C174.165 127.888 176.109 128.704 179.181 128.704C182.301 128.704 184.269 127.888 184.269 126.712C184.269 125.512 182.301 124.696 179.181 124.696ZM21.3808 174.424H11.5648V160.816H21.3808V174.424ZM19.2448 172.72V162.544H13.6768V172.72H19.2448ZM30.4528 168.784H27.0928V179.68H24.9568V158.704H27.0928V167.032H30.4528V168.784ZM51.0544 170.464H32.1184V168.736H51.0544V170.464ZM48.7504 179.392H34.4224V172.504H48.7504V179.392ZM46.6384 177.712V174.184H36.5584V177.712H46.6384ZM48.7984 163.216C48.7984 165.616 46.1584 167.224 41.5744 167.224C37.0144 167.224 34.3744 165.616 34.3744 163.216C34.3744 160.816 37.0144 159.232 41.5744 159.232C46.1584 159.232 48.7984 160.816 48.7984 163.216ZM46.5904 163.216C46.5904 161.848 44.6704 160.936 41.5744 160.936C38.5024 160.936 36.6064 161.848 36.6064 163.216C36.6064 164.584 38.5024 165.496 41.5744 165.496C44.6224 165.496 46.5904 164.584 46.5904 163.216ZM68.464 166.672H65.272V164.896H68.464V158.704H70.552V172.672H68.464V166.672ZM59.464 160.312C59.464 164.944 57.328 167.848 54.616 169.888L53.152 168.52C55.792 166.888 57.136 164.392 57.376 162.064H53.944V160.312H59.464ZM65.152 160.312C65.152 165.232 63.496 168.64 60.472 171.04L58.936 169.672C61.672 167.824 62.968 164.704 63.064 162.064H60.256V160.312H65.152ZM71.728 178.168L70.6 179.896C67.816 179.368 64.456 176.944 63.64 175.144C62.872 177.064 59.632 179.32 56.56 179.896L55.456 178.192C58.864 177.808 62.584 175.336 62.584 172.312V171.4H64.768V172.312C64.768 175.288 68.56 177.76 71.728 178.168ZM97.8703 179.392H83.7343V172.552H97.8703V179.392ZM98.4463 166.672H91.5343V159.424H93.5263V161.44H96.4783V159.424H98.4463V166.672ZM89.9983 166.672H83.1343V159.424H85.1263V161.44H88.0303V159.424H89.9983V166.672ZM100.27 170.896H81.3343V169.144H89.6863V167.2H91.8223V169.144H100.27V170.896ZM95.7343 177.688V174.256H85.8703V177.688H95.7343ZM96.4783 164.992V163.12H93.5263V164.992H96.4783ZM88.0303 164.992V163.12H85.1263V164.992H88.0303ZM120.272 179.68H118.232V168.64H115.664V178.648H113.648V159.16H115.664V166.888H118.232V158.704H120.272V179.68ZM112.496 173.392C110.984 173.752 107.96 174.016 105.392 174.064H103.376V161.032H105.512V172.264C107.552 172.264 110.744 172.048 112.184 171.64C112.304 172.216 112.4 172.816 112.496 173.392ZM140.418 171.256H134.274V175.384H142.722V177.112H123.786V175.384H132.138V171.256H126.066V160.168H128.202V163.984H138.306V160.168H140.418V171.256ZM138.306 169.504V165.712H128.202V169.504H138.306ZM164.571 168.784H161.211V179.68H159.075V158.704H161.211V167.032H164.571V168.784ZM145.323 167.608C145.323 163.456 146.955 160.192 150.651 160.192C154.347 160.192 155.955 163.456 155.955 167.632C155.955 171.76 154.347 175.024 150.651 175.024C146.955 175.024 145.323 171.76 145.323 167.608ZM153.867 167.632C153.867 164.368 152.763 162.016 150.651 162.016C148.539 162.016 147.459 164.368 147.459 167.632C147.459 170.848 148.539 173.2 150.651 173.2C152.763 173.2 153.867 170.848 153.867 167.632ZM183.517 165.544C183.517 168.808 180.397 170.968 175.693 170.968C171.013 170.968 167.893 168.808 167.893 165.544C167.893 162.28 171.013 160.096 175.693 160.096C180.421 160.096 183.517 162.28 183.517 165.544ZM181.333 165.544C181.333 163.336 179.101 161.848 175.693 161.848C172.309 161.848 170.077 163.336 170.077 165.544C170.077 167.728 172.309 169.216 175.693 169.216C179.077 169.216 181.333 167.728 181.333 165.544ZM185.173 177.016H166.237V175.288H170.773V171.568L172.909 171.496V175.288H178.453V171.496L180.565 171.568V175.288H185.173V177.016ZM188.878 173.176L188.614 160.096H190.942L190.678 173.176H188.878ZM188.638 177.4V175.072H190.966V177.4H188.638Z" fill="white"/>
<path d="M10.3502 82.8555C8.40016 82.8555 6.64513 82.5105 5.0851 81.8205C3.55507 81.1005 2.34005 80.1404 1.44003 78.9404C0.540011 77.7104 0.0600012 76.3454 0 74.8453H5.3101C5.40011 75.8954 5.89511 76.7804 6.79513 77.5004C7.72515 78.1904 8.88017 78.5354 10.2602 78.5354C11.7002 78.5354 12.8102 78.2654 13.5903 77.7254C14.4003 77.1554 14.8053 76.4354 14.8053 75.5654C14.8053 74.6353 14.3553 73.9453 13.4553 73.4953C12.5852 73.0453 11.1902 72.5503 9.27018 72.0103C7.41014 71.5003 5.89511 71.0053 4.72509 70.5253C3.55507 70.0452 2.53505 69.3102 1.66503 68.3202C0.825016 67.3302 0.405008 66.0252 0.405008 64.4051C0.405008 63.0851 0.795015 61.8851 1.57503 60.8051C2.35505 59.695 3.46507 58.825 4.9051 58.195C6.37512 57.565 8.05516 57.25 9.94519 57.25C12.7652 57.25 15.0303 57.97 16.7403 59.41C18.4804 60.8201 19.4104 62.7551 19.5304 65.2152H14.4003C14.3103 64.1051 13.8603 63.2201 13.0503 62.5601C12.2402 61.9001 11.1452 61.5701 9.76519 61.5701C8.41516 61.5701 7.38014 61.8251 6.66013 62.3351C5.94012 62.8451 5.58011 63.5201 5.58011 64.3601C5.58011 65.0201 5.82011 65.5752 6.30012 66.0252C6.78013 66.4752 7.36514 66.8352 8.05516 67.1052C8.74517 67.3452 9.76519 67.6602 11.1152 68.0502C12.9153 68.5302 14.3853 69.0252 15.5253 69.5352C16.6953 70.0152 17.7003 70.7353 18.5404 71.6953C19.3804 72.6553 19.8154 73.9303 19.8454 75.5204C19.8454 76.9304 19.4554 78.1904 18.6754 79.3004C17.8953 80.4104 16.7853 81.2805 15.3453 81.9105C13.9353 82.5405 12.2702 82.8555 10.3502 82.8555Z" fill="white"/>
<path d="M31.0362 61.3001C31.9062 60.1601 33.0912 59.2 34.5913 58.42C36.0913 57.64 37.7863 57.25 39.6764 57.25C41.8364 57.25 43.8014 57.79 45.5715 58.87C47.3715 59.9201 48.7815 61.4051 49.8015 63.3251C50.8216 65.2452 51.3316 67.4502 51.3316 69.9402C51.3316 72.4303 50.8216 74.6653 49.8015 76.6454C48.7815 78.5954 47.3715 80.1254 45.5715 81.2355C43.8014 82.3155 41.8364 82.8555 39.6764 82.8555C37.7863 82.8555 36.1063 82.4805 34.6363 81.7305C33.1662 80.9505 31.9662 79.9904 31.0362 78.8504V94.2407H25.9061V57.655H31.0362V61.3001ZM46.1115 69.9402C46.1115 68.2302 45.7515 66.7602 45.0315 65.5302C44.3414 64.2701 43.4114 63.3251 42.2414 62.6951C41.1014 62.0351 39.8714 61.7051 38.5513 61.7051C37.2613 61.7051 36.0313 62.0351 34.8613 62.6951C33.7212 63.3551 32.7912 64.3151 32.0712 65.5752C31.3812 66.8352 31.0362 68.3202 31.0362 70.0302C31.0362 71.7403 31.3812 73.2403 32.0712 74.5303C32.7912 75.7904 33.7212 76.7504 34.8613 77.4104C36.0313 78.0704 37.2613 78.4004 38.5513 78.4004C39.8714 78.4004 41.1014 78.0704 42.2414 77.4104C43.4114 76.7204 44.3414 75.7304 45.0315 74.4403C45.7515 73.1503 46.1115 71.6503 46.1115 69.9402Z" fill="white"/>
<path d="M55.2122 69.9402C55.2122 67.4502 55.7222 65.2452 56.7422 63.3251C57.7923 61.4051 59.2023 59.9201 60.9723 58.87C62.7723 57.79 64.7524 57.25 66.9124 57.25C68.8625 57.25 70.5575 57.64 71.9975 58.42C73.4676 59.17 74.6376 60.1151 75.5076 61.2551V57.655H80.6827V82.4505H75.5076V78.7604C74.6376 79.9304 73.4526 80.9055 71.9525 81.6855C70.4525 82.4655 68.7425 82.8555 66.8224 82.8555C64.6924 82.8555 62.7423 82.3155 60.9723 81.2355C59.2023 80.1254 57.7923 78.5954 56.7422 76.6454C55.7222 74.6653 55.2122 72.4303 55.2122 69.9402ZM75.5076 70.0302C75.5076 68.3202 75.1476 66.8352 74.4276 65.5752C73.7376 64.3151 72.8225 63.3551 71.6825 62.6951C70.5425 62.0351 69.3125 61.7051 67.9925 61.7051C66.6724 61.7051 65.4424 62.0351 64.3024 62.6951C63.1624 63.3251 62.2323 64.2701 61.5123 65.5302C60.8223 66.7602 60.4773 68.2302 60.4773 69.9402C60.4773 71.6503 60.8223 73.1503 61.5123 74.4403C62.2323 75.7304 63.1624 76.7204 64.3024 77.4104C65.4724 78.0704 66.7024 78.4004 67.9925 78.4004C69.3125 78.4004 70.5425 78.0704 71.6825 77.4104C72.8225 76.7504 73.7376 75.7904 74.4276 74.5303C75.1476 73.2403 75.5076 71.7403 75.5076 70.0302Z" fill="white"/>
<path d="M86.2283 70.0302C86.2283 67.4802 86.7384 65.2452 87.7584 63.3251C88.8084 61.3751 90.2484 59.875 92.0785 58.825C93.9085 57.775 96.0085 57.25 98.3786 57.25C101.379 57.25 103.854 57.97 105.804 59.41C107.784 60.8201 109.119 62.8451 109.809 65.4852H104.274C103.824 64.2551 103.104 63.2951 102.114 62.6051C101.124 61.9151 99.8786 61.5701 98.3786 61.5701C96.2785 61.5701 94.5985 62.3201 93.3385 63.8201C92.1085 65.2902 91.4935 67.3602 91.4935 70.0302C91.4935 72.7003 92.1085 74.7853 93.3385 76.2854C94.5985 77.7854 96.2785 78.5354 98.3786 78.5354C101.349 78.5354 103.314 77.2304 104.274 74.6203H109.809C109.089 77.1404 107.739 79.1504 105.759 80.6505C103.779 82.1205 101.319 82.8555 98.3786 82.8555C96.0085 82.8555 93.9085 82.3305 92.0785 81.2805C90.2484 80.2004 88.8084 78.7004 87.7584 76.7804C86.7384 74.8303 86.2283 72.5803 86.2283 70.0302Z" fill="white"/>
<path d="M138.164 69.4452C138.164 70.3753 138.104 71.2153 137.984 71.9653H119.039C119.189 73.9453 119.924 75.5354 121.244 76.7354C122.564 77.9354 124.184 78.5354 126.104 78.5354C128.864 78.5354 130.814 77.3804 131.954 75.0703H137.489C136.739 77.3504 135.374 79.2254 133.394 80.6955C131.444 82.1355 129.014 82.8555 126.104 82.8555C123.734 82.8555 121.604 82.3305 119.714 81.2805C117.854 80.2004 116.384 78.7004 115.304 76.7804C114.254 74.8303 113.729 72.5803 113.729 70.0302C113.729 67.4802 114.239 65.2452 115.259 63.3251C116.309 61.3751 117.764 59.875 119.624 58.825C121.514 57.775 123.674 57.25 126.104 57.25C128.444 57.25 130.529 57.76 132.359 58.78C134.189 59.8 135.614 61.2401 136.634 63.1001C137.654 64.9301 138.164 67.0452 138.164 69.4452ZM132.809 67.8252C132.779 65.9352 132.104 64.4201 130.784 63.2801C129.464 62.1401 127.829 61.5701 125.879 61.5701C124.109 61.5701 122.594 62.1401 121.334 63.2801C120.074 64.3901 119.324 65.9052 119.084 67.8252H132.809Z" fill="white"/>
<path d="M148.86 61.3001C149.73 60.1601 150.915 59.2 152.415 58.42C153.916 57.64 155.611 57.25 157.501 57.25C159.661 57.25 161.626 57.79 163.396 58.87C165.196 59.9201 166.606 61.4051 167.626 63.3251C168.646 65.2452 169.156 67.4502 169.156 69.9402C169.156 72.4303 168.646 74.6653 167.626 76.6454C166.606 78.5954 165.196 80.1254 163.396 81.2355C161.626 82.3155 159.661 82.8555 157.501 82.8555C155.611 82.8555 153.931 82.4805 152.461 81.7305C150.99 80.9505 149.79 79.9904 148.86 78.8504V94.2407H143.73V57.655H148.86V61.3001ZM163.936 69.9402C163.936 68.2302 163.576 66.7602 162.856 65.5302C162.166 64.2701 161.236 63.3251 160.066 62.6951C158.926 62.0351 157.696 61.7051 156.376 61.7051C155.086 61.7051 153.856 62.0351 152.686 62.6951C151.545 63.3551 150.615 64.3151 149.895 65.5752C149.205 66.8352 148.86 68.3202 148.86 70.0302C148.86 71.7403 149.205 73.2403 149.895 74.5303C150.615 75.7904 151.545 76.7504 152.686 77.4104C153.856 78.0704 155.086 78.4004 156.376 78.4004C157.696 78.4004 158.926 78.0704 160.066 77.4104C161.236 76.7204 162.166 75.7304 162.856 74.4403C163.576 73.1503 163.936 71.6503 163.936 69.9402Z" fill="white"/>
<path d="M177.113 59.5781C177.137 59.3389 177.486 59.3389 177.51 59.5781L179.877 82.4505H174.746L177.113 59.5781Z" fill="white"/>
<path d="M185.419 70.0302C185.419 67.4802 185.929 65.2452 186.949 63.3251C187.999 61.3751 189.44 59.875 191.27 58.825C193.1 57.775 195.2 57.25 197.57 57.25C200.57 57.25 203.045 57.97 204.995 59.41C206.975 60.8201 208.31 62.8451 209 65.4852H203.465C203.015 64.2551 202.295 63.2951 201.305 62.6051C200.315 61.9151 199.07 61.5701 197.57 61.5701C195.47 61.5701 193.79 62.3201 192.53 63.8201C191.3 65.2902 190.685 67.3602 190.685 70.0302C190.685 72.7003 191.3 74.7853 192.53 76.2854C193.79 77.7854 195.47 78.5354 197.57 78.5354C200.54 78.5354 202.505 77.2304 203.465 74.6203H209C208.28 77.1404 206.93 79.1504 204.95 80.6505C202.97 82.1205 200.51 82.8555 197.57 82.8555C195.2 82.8555 193.1 82.3305 191.27 81.2805C189.44 80.2004 187.999 78.7004 186.949 76.7804C185.929 74.8303 185.419 72.5803 185.419 70.0302Z" fill="white"/>
<g filter="url(#filter0_d_1615_1317)">
<path d="M177.292 46.6002C177.351 46.4142 177.615 46.4143 177.674 46.6002L178.381 48.827C178.42 48.9522 178.568 49.0058 178.679 48.9352L180.63 47.6912C180.794 47.5868 180.996 47.7538 180.923 47.9343L180.051 50.1127C180.003 50.2332 180.08 50.367 180.209 50.3851L182.503 50.7078C182.694 50.7348 182.74 50.9906 182.569 51.0821L180.518 52.1832C180.404 52.2444 180.378 52.3959 180.463 52.4925L182.02 54.2405C182.149 54.3851 182.017 54.6102 181.828 54.5689L179.571 54.0761C179.443 54.0482 179.323 54.1482 179.328 54.2788L179.414 56.6233C179.421 56.8181 179.173 56.9069 179.055 56.7522L177.642 54.9074C177.562 54.8029 177.404 54.8029 177.324 54.9073L175.911 56.7522C175.792 56.9069 175.545 56.818 175.552 56.6232L175.638 54.2788C175.643 54.1483 175.523 54.0482 175.395 54.0761L173.137 54.5689C172.948 54.6102 172.816 54.3852 172.945 54.2405L174.502 52.4925C174.588 52.3959 174.561 52.2444 174.447 52.1832L172.396 51.0821C172.226 50.9907 172.271 50.7348 172.463 50.7078L174.757 50.3851C174.886 50.367 174.963 50.2332 174.915 50.1127L174.043 47.9344C173.971 47.754 174.172 47.5869 174.336 47.6914L176.287 48.9352C176.397 49.0058 176.545 48.9523 176.585 48.8271L177.292 46.6002Z" fill="#FEC606"/>
</g>
<path d="M38.0479 3.00085C38.3433 2.07115 39.6589 2.07134 39.954 3.00113L41.3842 7.50661C41.583 8.13264 42.321 8.40036 42.8749 8.04733L46.8229 5.53093C47.6423 5.00864 48.6499 5.84387 48.2887 6.74595L46.51 11.1876C46.2688 11.7901 46.6564 12.4592 47.299 12.5496L51.9739 13.2073C52.9311 13.342 53.1592 14.6214 52.3076 15.0786L48.1159 17.3291C47.5465 17.6348 47.4123 18.3924 47.8421 18.8751L51.0236 22.4482C51.6678 23.1717 51.0099 24.2968 50.0635 24.0902L45.4824 23.0901C44.8442 22.9508 44.246 23.4507 44.2697 24.1034L44.443 28.8654C44.4784 29.8392 43.2423 30.2834 42.6498 29.5099L39.7951 25.7828C39.3949 25.2603 38.6078 25.2602 38.2075 25.7826L35.351 29.5101C34.7583 30.2835 33.5222 29.8389 33.558 28.8652L33.7326 24.1037C33.7566 23.4509 33.1584 22.9508 32.5201 23.0901L27.9362 24.0905C26.9898 24.297 26.332 23.1719 26.9761 22.4484L30.1579 18.8751C30.5877 18.3924 30.4535 17.6348 29.8841 17.3291L25.6926 15.0787C24.841 14.6215 25.0692 13.3421 26.0264 13.2074L30.7037 12.5496C31.3464 12.4592 31.734 11.79 31.4928 11.1875L29.7144 6.74676C29.3532 5.84461 30.361 5.00936 31.1804 5.53183L35.1254 8.04724C35.6792 8.40033 36.4172 8.13281 36.6161 7.50688L38.0479 3.00085Z" fill="#9001FF"/>
<path d="M105.022 29.7913L104.971 15.6399L95.8775 26.4843L104.936 15.6106L91 18.0701L104.929 15.5642L92.6706 8.49091L104.951 15.5251L100.108 2.22608L104.995 15.5105L109.831 2.20898L105.037 15.5251L117.293 8.44695L105.061 15.5642L119 18.0188L105.054 15.6106L114.152 26.4501L105.017 15.6399L105.022 29.7913Z" fill="white" stroke="#FD01A8" stroke-width="3" stroke-miterlimit="10" stroke-linecap="round" stroke-linejoin="round"/>
<path d="M175.051 14.9899C172.828 14.9899 171.01 13.1717 171.01 10.9495V1.84175C171.01 1.37687 170.633 1 170.168 1V1C169.703 1 169.327 1.37686 169.327 1.84175V10.9495C169.327 13.1717 167.508 14.9899 165.286 14.9899H156C155.448 14.9899 155 15.4376 155 15.9899V16.0101C155 16.5624 155.448 17.0101 156 17.0101H165.286C167.508 17.0101 169.327 18.8283 169.327 21.0505V30.1582C169.327 30.6231 169.703 31 170.168 31V31C170.633 31 171.01 30.6231 171.01 30.1582V21.0505C171.01 18.8283 172.828 17.0101 175.051 17.0101H184C184.552 17.0101 185 16.5624 185 16.0101V15.9899C185 15.4376 184.552 14.9899 184 14.9899H175.051Z" fill="#A2EF05"/>
<defs>
<filter id="filter0_d_1615_1317" x="162.29" y="40.4609" width="30.3843" height="30.3701" filterUnits="userSpaceOnUse" color-interpolation-filters="sRGB">
<feFlood flood-opacity="0" result="BackgroundImageFix"/>
<feColorMatrix in="SourceAlpha" type="matrix" values="0 0 0 0 0 0 0 0 0 0 0 0 0 0 0 0 0 0 127 0" result="hardAlpha"/>
<feOffset dy="4"/>
<feGaussianBlur stdDeviation="5"/>
<feComposite in2="hardAlpha" operator="out"/>
<feColorMatrix type="matrix" values="0 0 0 0 0 0 0 0 0 0 0 0 0 0 0 0 0 0 0.2 0"/>
<feBlend mode="normal" in2="BackgroundImageFix" result="effect1_dropShadow_1615_1317"/>
<feBlend mode="normal" in="SourceGraphic" in2="effect1_dropShadow_1615_1317" result="shape"/>
</filter>
</defs>
</svg>
