<svg width="97" height="56" viewBox="0 0 97 56" fill="none" xmlns="http://www.w3.org/2000/svg">
<path fill-rule="evenodd" clip-rule="evenodd" d="M82.1666 13.1937C78.7704 5.42708 71.019 0 62 0C51.9121 0 43.4101 6.78974 40.8144 16.0486C40.4629 16.0225 40.1084 16.0068 39.7514 16.0018C35.7479 10.5436 29.2878 7 22 7C9.84974 7 0 16.8497 0 29C0 41.1503 9.84974 51 22 51C25.3156 51 28.4599 50.2665 31.2795 48.953C33.7304 50.2595 36.5287 51 39.5 51C45.8077 51 51.336 47.6628 54.4155 42.6577C54.5542 42.7086 54.6934 42.7581 54.8334 42.8063C58.2296 50.5729 65.981 56 75 56C87.1503 56 97 46.1503 97 34C97 24.3589 90.7983 16.1663 82.1666 13.1937Z" fill="white"/>
<path d="M34.5054 34.106H32.9514V21.632H34.5054V34.106ZM31.9994 33.532H30.4734V27.848H28.8494V26.532H30.4734V21.87H31.9994V33.532ZM29.1714 23.102C29.1714 26.826 27.7294 29.668 24.6774 31.67L23.6134 30.536C26.0494 29.08 27.3934 26.896 27.5754 24.418H24.3694V23.102H29.1714ZM46.5247 34.106H44.8867V21.632H46.5247V34.106ZM43.9487 30.046L42.9967 31.278C41.9747 30.648 40.6727 29.136 40.2527 27.834C39.8467 29.262 38.5587 30.844 37.2707 31.544L36.2767 30.34C38.2927 29.038 39.3707 27.064 39.3707 24.586V22.682H41.0647V24.502C41.0647 26.966 42.0587 28.828 43.9487 30.046ZM55.702 25.902H48.464V24.6H55.702V25.902ZM50.214 23.732V22.444H54.064V23.732H50.214ZM58.278 21.632V26.686H60.014V28.044H58.278V34.106H56.626V21.632H58.278ZM49.08 29.024C49.08 27.498 50.298 26.336 52.09 26.336C53.882 26.336 55.1 27.456 55.1 29.024C55.1 30.55 53.882 31.712 52.09 31.712C50.298 31.712 49.08 30.606 49.08 29.024ZM50.676 29.024C50.676 29.836 51.264 30.382 52.09 30.382C53 30.382 53.504 29.836 53.504 29.024C53.504 28.198 52.902 27.652 52.09 27.652C51.278 27.652 50.676 28.198 50.676 29.024ZM71.1513 34.106H69.5133V21.632H71.1513V34.106ZM67.3153 22.934C67.2173 26.7 65.5513 29.78 61.7433 31.852L60.7353 30.62C63.4653 29.374 65.3273 26.77 65.5513 24.292H61.4913V22.934H67.3153Z" fill="#1C1C1C"/>
</svg>
