<svg xmlns="http://www.w3.org/2000/svg" width="209" height="54" viewBox="0 0 209 54" fill="none">
  <path d="M10.3503 41.9712C8.40022 41.9712 6.64519 41.6262 5.08516 40.9362C3.55513 40.2162 2.34011 39.2562 1.44009 38.0561C0.540072 36.8261 0.0600622 35.4611 6.10352e-05 33.9611H5.31016C5.40017 35.0111 5.89518 35.8961 6.79519 36.6161C7.72521 37.3061 8.88023 37.6511 10.2603 37.6511C11.7003 37.6511 12.8103 37.3811 13.5903 36.8411C14.4003 36.2711 14.8053 35.5511 14.8053 34.6811C14.8053 33.7511 14.3553 33.061 13.4553 32.611C12.5853 32.161 11.1903 31.666 9.27024 31.126C7.41021 30.616 5.89518 30.121 4.72515 29.641C3.55513 29.161 2.53511 28.426 1.66509 27.4359C0.825077 26.4459 0.405069 25.1409 0.405069 23.5209C0.405069 22.2008 0.795076 21.0008 1.57509 19.9208C2.35511 18.8108 3.46513 17.9408 4.90516 17.3107C6.37519 16.6807 8.05522 16.3657 9.94525 16.3657C12.7653 16.3657 15.0304 17.0857 16.7404 18.5258C18.4804 19.9358 19.4104 21.8708 19.5304 24.3309H14.4003C14.3103 23.2209 13.8603 22.3358 13.0503 21.6758C12.2403 21.0158 11.1453 20.6858 9.76525 20.6858C8.41523 20.6858 7.3802 20.9408 6.66019 21.4508C5.94018 21.9608 5.58017 22.6358 5.58017 23.4759C5.58017 24.1359 5.82017 24.6909 6.30018 25.1409C6.78019 25.5909 7.3652 25.9509 8.05522 26.2209C8.74523 26.4609 9.76525 26.7759 11.1153 27.1659C12.9153 27.6459 14.3853 28.1409 15.5254 28.651C16.6954 29.131 17.7004 29.851 18.5404 30.811C19.3804 31.771 19.8154 33.046 19.8454 34.6361C19.8454 36.0461 19.4554 37.3061 18.6754 38.4161C17.8954 39.5262 16.7854 40.3962 15.3454 41.0262C13.9353 41.6562 12.2703 41.9712 10.3503 41.9712Z" fill="white"/>
  <path d="M31.0362 20.4158C31.9063 19.2758 33.0913 18.3158 34.5913 17.5357C36.0913 16.7557 37.7864 16.3657 39.6764 16.3657C41.8365 16.3657 43.8015 16.9057 45.5715 17.9858C47.3716 19.0358 48.7816 20.5208 49.8016 22.4408C50.8216 24.3609 51.3316 26.5659 51.3316 29.056C51.3316 31.546 50.8216 33.7811 49.8016 35.7611C48.7816 37.7111 47.3716 39.2412 45.5715 40.3512C43.8015 41.4312 41.8365 41.9712 39.6764 41.9712C37.7864 41.9712 36.1063 41.5962 34.6363 40.8462C33.1663 40.0662 31.9663 39.1062 31.0362 37.9661V53.3564H25.9061V16.7707H31.0362V20.4158ZM46.1115 29.056C46.1115 27.3459 45.7515 25.8759 45.0315 24.6459C44.3415 23.3859 43.4115 22.4408 42.2415 21.8108C41.1014 21.1508 39.8714 20.8208 38.5514 20.8208C37.2614 20.8208 36.0313 21.1508 34.8613 21.8108C33.7213 22.4708 32.7913 23.4309 32.0713 24.6909C31.3813 25.9509 31.0362 27.4359 31.0362 29.146C31.0362 30.856 31.3813 32.356 32.0713 33.6461C32.7913 34.9061 33.7213 35.8661 34.8613 36.5261C36.0313 37.1861 37.2614 37.5161 38.5514 37.5161C39.8714 37.5161 41.1014 37.1861 42.2415 36.5261C43.4115 35.8361 44.3415 34.8461 45.0315 33.5561C45.7515 32.266 46.1115 30.766 46.1115 29.056Z" fill="white"/>
  <path d="M55.2123 29.056C55.2123 26.5659 55.7223 24.3609 56.7423 22.4408C57.7923 20.5208 59.2023 19.0358 60.9724 17.9858C62.7724 16.9057 64.7524 16.3657 66.9125 16.3657C68.8625 16.3657 70.5576 16.7557 71.9976 17.5357C73.4676 18.2858 74.6376 19.2308 75.5077 20.3708V16.7707H80.6828V41.5662H75.5077V37.8761C74.6376 39.0462 73.4526 40.0212 71.9526 40.8012C70.4526 41.5812 68.7425 41.9712 66.8225 41.9712C64.6924 41.9712 62.7424 41.4312 60.9724 40.3512C59.2023 39.2412 57.7923 37.7111 56.7423 35.7611C55.7223 33.7811 55.2123 31.546 55.2123 29.056ZM75.5077 29.146C75.5077 27.4359 75.1477 25.9509 74.4276 24.6909C73.7376 23.4309 72.8226 22.4708 71.6826 21.8108C70.5426 21.1508 69.3125 20.8208 67.9925 20.8208C66.6725 20.8208 65.4425 21.1508 64.3024 21.8108C63.1624 22.4408 62.2324 23.3859 61.5124 24.6459C60.8224 25.8759 60.4774 27.3459 60.4774 29.056C60.4774 30.766 60.8224 32.266 61.5124 33.5561C62.2324 34.8461 63.1624 35.8361 64.3024 36.5261C65.4725 37.1861 66.7025 37.5161 67.9925 37.5161C69.3125 37.5161 70.5426 37.1861 71.6826 36.5261C72.8226 35.8661 73.7376 34.9061 74.4276 33.6461C75.1477 32.356 75.5077 30.856 75.5077 29.146Z" fill="white"/>
  <path d="M86.2284 29.146C86.2284 26.5959 86.7384 24.3609 87.7584 22.4408C88.8085 20.4908 90.2485 18.9908 92.0785 17.9408C93.9086 16.8907 96.0086 16.3657 98.3786 16.3657C101.379 16.3657 103.854 17.0857 105.804 18.5258C107.784 19.9358 109.119 21.9608 109.809 24.6009H104.274C103.824 23.3709 103.104 22.4108 102.114 21.7208C101.124 21.0308 99.8787 20.6858 98.3786 20.6858C96.2786 20.6858 94.5986 21.4358 93.3385 22.9358C92.1085 24.4059 91.4935 26.4759 91.4935 29.146C91.4935 31.816 92.1085 33.9011 93.3385 35.4011C94.5986 36.9011 96.2786 37.6511 98.3786 37.6511C101.349 37.6511 103.314 36.3461 104.274 33.7361H109.809C109.089 36.2561 107.739 38.2661 105.759 39.7662C103.779 41.2362 101.319 41.9712 98.3786 41.9712C96.0086 41.9712 93.9086 41.4462 92.0785 40.3962C90.2485 39.3162 88.8085 37.8161 87.7584 35.8961C86.7384 33.9461 86.2284 31.696 86.2284 29.146Z" fill="white"/>
  <path d="M138.164 28.561C138.164 29.491 138.104 30.331 137.984 31.081H119.039C119.189 33.061 119.924 34.6511 121.244 35.8511C122.564 37.0511 124.184 37.6511 126.104 37.6511C128.864 37.6511 130.814 36.4961 131.954 34.1861H137.489C136.739 36.4661 135.374 38.3411 133.394 39.8112C131.444 41.2512 129.014 41.9712 126.104 41.9712C123.734 41.9712 121.604 41.4462 119.714 40.3962C117.854 39.3162 116.384 37.8161 115.304 35.8961C114.254 33.9461 113.729 31.696 113.729 29.146C113.729 26.5959 114.239 24.3609 115.259 22.4408C116.309 20.4908 117.764 18.9908 119.624 17.9408C121.514 16.8907 123.674 16.3657 126.104 16.3657C128.444 16.3657 130.529 16.8757 132.359 17.8958C134.189 18.9158 135.614 20.3558 136.634 22.2158C137.654 24.0459 138.164 26.1609 138.164 28.561ZM132.809 26.9409C132.779 25.0509 132.104 23.5359 130.784 22.3958C129.464 21.2558 127.829 20.6858 125.879 20.6858C124.109 20.6858 122.594 21.2558 121.334 22.3958C120.074 23.5059 119.324 25.0209 119.084 26.9409H132.809Z" fill="white"/>
  <path d="M148.86 20.4158C149.73 19.2758 150.916 18.3158 152.416 17.5357C153.916 16.7557 155.611 16.3657 157.501 16.3657C159.661 16.3657 161.626 16.9057 163.396 17.9858C165.196 19.0358 166.606 20.5208 167.626 22.4408C168.646 24.3609 169.156 26.5659 169.156 29.056C169.156 31.546 168.646 33.7811 167.626 35.7611C166.606 37.7111 165.196 39.2412 163.396 40.3512C161.626 41.4312 159.661 41.9712 157.501 41.9712C155.611 41.9712 153.931 41.5962 152.461 40.8462C150.991 40.0662 149.79 39.1062 148.86 37.9661V53.3564H143.73V16.7707H148.86V20.4158ZM163.936 29.056C163.936 27.3459 163.576 25.8759 162.856 24.6459C162.166 23.3859 161.236 22.4408 160.066 21.8108C158.926 21.1508 157.696 20.8208 156.376 20.8208C155.086 20.8208 153.856 21.1508 152.686 21.8108C151.546 22.4708 150.616 23.4309 149.896 24.6909C149.206 25.9509 148.86 27.4359 148.86 29.146C148.86 30.856 149.206 32.356 149.896 33.6461C150.616 34.9061 151.546 35.8661 152.686 36.5261C153.856 37.1861 155.086 37.5161 156.376 37.5161C157.696 37.5161 158.926 37.1861 160.066 36.5261C161.236 35.8361 162.166 34.8461 162.856 33.5561C163.576 32.266 163.936 30.766 163.936 29.056Z" fill="white"/>
  <path d="M177.113 18.6938C177.137 18.4546 177.486 18.4546 177.511 18.6938L179.877 41.5662H174.747L177.113 18.6938Z" fill="white"/>
  <path d="M185.419 29.146C185.419 26.5959 185.929 24.3609 186.949 22.4408C188 20.4908 189.44 18.9908 191.27 17.9408C193.1 16.8907 195.2 16.3657 197.57 16.3657C200.57 16.3657 203.045 17.0857 204.995 18.5258C206.975 19.9358 208.31 21.9608 209 24.6009H203.465C203.015 23.3709 202.295 22.4108 201.305 21.7208C200.315 21.0308 199.07 20.6858 197.57 20.6858C195.47 20.6858 193.79 21.4358 192.53 22.9358C191.3 24.4059 190.685 26.4759 190.685 29.146C190.685 31.816 191.3 33.9011 192.53 35.4011C193.79 36.9011 195.47 37.6511 197.57 37.6511C200.54 37.6511 202.505 36.3461 203.465 33.7361H209C208.28 36.2561 206.93 38.2661 204.95 39.7662C202.97 41.2362 200.51 41.9712 197.57 41.9712C195.2 41.9712 193.1 41.4462 191.27 40.3962C189.44 39.3162 188 37.8161 186.949 35.8961C185.929 33.9461 185.419 31.696 185.419 29.146Z" fill="white"/>
  <g filter="url(#filter0_d_1465_1334)">
    <path d="M177.292 6.16609C177.352 5.98015 177.615 5.98019 177.674 6.16614L178.381 8.39295C178.42 8.51816 178.568 8.5717 178.679 8.50109L180.63 7.25716C180.794 7.15271 180.996 7.31975 180.923 7.50017L180.051 9.67863C180.003 9.79913 180.08 9.93295 180.209 9.95103L182.503 10.2737C182.694 10.3007 182.74 10.5566 182.569 10.648L180.518 11.7492C180.404 11.8103 180.378 11.9618 180.464 12.0584L182.02 13.8064C182.149 13.9511 182.017 14.1761 181.828 14.1348L179.571 13.642C179.443 13.6141 179.323 13.7141 179.328 13.8447L179.414 16.1892C179.421 16.384 179.173 16.4728 179.055 16.3181L177.642 14.4733C177.562 14.3688 177.404 14.3688 177.324 14.4733L175.911 16.3182C175.792 16.4728 175.545 16.3839 175.552 16.1892L175.638 13.8447C175.643 13.7142 175.523 13.6141 175.395 13.642L173.137 14.1348C172.948 14.1761 172.816 13.9511 172.945 13.8064L174.502 12.0584C174.588 11.9618 174.561 11.8103 174.447 11.7492L172.396 10.648C172.226 10.5566 172.271 10.3007 172.463 10.2738L174.757 9.95102C174.886 9.93294 174.963 9.79912 174.915 9.67862L174.043 7.50033C173.971 7.3199 174.172 7.15285 174.336 7.25734L176.287 8.50107C176.397 8.57169 176.545 8.51819 176.585 8.393L177.292 6.16609Z" fill="#FEC606"/>
  </g>
  <defs>
    <filter id="filter0_d_1465_1334" x="162.291" y="0.0268555" width="30.3843" height="30.3701" filterUnits="userSpaceOnUse" color-interpolation-filters="sRGB">
      <feFlood flood-opacity="0" result="BackgroundImageFix"/>
      <feColorMatrix in="SourceAlpha" type="matrix" values="0 0 0 0 0 0 0 0 0 0 0 0 0 0 0 0 0 0 127 0" result="hardAlpha"/>
      <feOffset dy="4"/>
      <feGaussianBlur stdDeviation="5"/>
      <feComposite in2="hardAlpha" operator="out"/>
      <feColorMatrix type="matrix" values="0 0 0 0 0 0 0 0 0 0 0 0 0 0 0 0 0 0 0.2 0"/>
      <feBlend mode="normal" in2="BackgroundImageFix" result="effect1_dropShadow_1465_1334"/>
      <feBlend mode="normal" in="SourceGraphic" in2="effect1_dropShadow_1465_1334" result="shape"/>
    </filter>
  </defs>
</svg>