<svg xmlns="http://www.w3.org/2000/svg" width="88" height="89" viewBox="0 0 88 89" fill="none" >
  <g filter="url(#filter0_d_1465_1356)">
    <path d="M43.0496 7.35779C43.345 6.42809 44.6607 6.42828 44.9558 7.35806L49.8565 22.7967C50.0552 23.4228 50.7933 23.6905 51.3471 23.3375L64.8783 14.7129C65.6977 14.1906 66.7054 15.0258 66.3441 15.9279L60.3047 31.0094C60.0635 31.6118 60.4511 32.2809 61.0937 32.3714L76.9739 34.6056C77.9311 34.7403 78.1592 36.0197 77.3076 36.4769L63.1151 44.0968C62.5456 44.4025 62.4114 45.1601 62.8413 45.6428L73.6113 57.7383C74.2555 58.4618 73.5976 59.5869 72.6512 59.3803L57.011 55.9659C56.3728 55.8266 55.7746 56.3265 55.7983 56.9793L56.3893 73.2224C56.4247 74.1961 55.1886 74.6404 54.5961 73.8668L44.7968 61.0729C44.3966 60.5504 43.6095 60.5503 43.2092 61.0727L33.4047 73.867C32.812 74.6404 31.5759 74.1958 31.6117 73.2221L32.2075 56.9796C32.2315 56.3267 31.6333 55.8266 30.995 55.9659L15.3485 59.3806C14.4021 59.5871 13.7443 58.462 14.3885 57.7386L25.1587 45.6428C25.5886 45.1601 25.4544 44.4025 24.8849 44.0968L10.6926 36.477C9.84097 36.0198 10.0692 34.7403 11.0264 34.6057L26.9125 32.3713C27.5551 32.2809 27.9428 31.6118 27.7015 31.0093L21.6625 15.9287C21.3012 15.0266 22.309 14.1913 23.1284 14.7138L36.6531 23.3374C37.2069 23.6905 37.9449 23.4229 38.1438 22.797L43.0496 7.35779Z" fill="#FEC606"/>
  </g>
  <defs>
    <filter id="filter0_d_1465_1356" x="0.164978" y="0.660645" width="87.6702" height="87.6006" filterUnits="userSpaceOnUse" color-interpolation-filters="sRGB">
      <feFlood flood-opacity="0" result="BackgroundImageFix"/>
      <feColorMatrix in="SourceAlpha" type="matrix" values="0 0 0 0 0 0 0 0 0 0 0 0 0 0 0 0 0 0 127 0" result="hardAlpha"/>
      <feOffset dy="4"/>
      <feGaussianBlur stdDeviation="5"/>
      <feComposite in2="hardAlpha" operator="out"/>
      <feColorMatrix type="matrix" values="0 0 0 0 0 0 0 0 0 0 0 0 0 0 0 0 0 0 0.2 0"/>
      <feBlend mode="normal" in2="BackgroundImageFix" result="effect1_dropShadow_1465_1356"/>
      <feBlend mode="normal" in="SourceGraphic" in2="effect1_dropShadow_1465_1356" result="shape"/>
    </filter>
  </defs>
</svg>