<svg width="88" height="89" viewBox="0 0 88 89" fill="none" xmlns="http://www.w3.org/2000/svg">
<g filter="url(#filter0_d_1465_1355)">
<path d="M43.0496 7.35779C43.345 6.42809 44.6607 6.42828 44.9558 7.35806L49.8565 22.7967C50.0552 23.4228 50.7933 23.6905 51.3471 23.3375L64.8783 14.7129C65.6977 14.1906 66.7054 15.0258 66.3441 15.9279L60.3047 31.0094C60.0635 31.6118 60.4511 32.2809 61.0937 32.3714L76.9739 34.6056C77.9311 34.7403 78.1592 36.0197 77.3076 36.4769L63.1151 44.0968C62.5456 44.4025 62.4114 45.1601 62.8413 45.6428L73.6113 57.7383C74.2555 58.4618 73.5976 59.5869 72.6512 59.3803L57.011 55.9659C56.3728 55.8266 55.7746 56.3265 55.7983 56.9793L56.3893 73.2224C56.4247 74.1961 55.1886 74.6404 54.5961 73.8668L44.7968 61.0729C44.3966 60.5504 43.6095 60.5503 43.2092 61.0727L33.4047 73.867C32.812 74.6404 31.5759 74.1958 31.6117 73.2221L32.2075 56.9796C32.2315 56.3267 31.6333 55.8266 30.995 55.9659L15.3485 59.3806C14.4021 59.5871 13.7443 58.462 14.3885 57.7386L25.1587 45.6428C25.5886 45.1601 25.4544 44.4025 24.8849 44.0968L10.6926 36.477C9.84097 36.0198 10.0692 34.7403 11.0264 34.6057L26.9125 32.3713C27.5551 32.2809 27.9428 31.6118 27.7015 31.0093L21.6625 15.9287C21.3012 15.0266 22.309 14.1913 23.1284 14.7138L36.6531 23.3374C37.2069 23.6905 37.9449 23.4229 38.1438 22.797L43.0496 7.35779Z" fill="#FEC606"/>
</g>
<path d="M31.7708 36.3569V33.7769H36.5908V48.3569H33.7108V36.3569H31.7708ZM43.9169 48.5369C43.0102 48.5369 42.1969 48.3769 41.4769 48.0569C40.7569 47.7236 40.1835 47.2769 39.7569 46.7169C39.3435 46.1569 39.1169 45.5369 39.0769 44.8569H41.8969C41.9502 45.2836 42.1569 45.6369 42.5169 45.9169C42.8902 46.1969 43.3502 46.3369 43.8969 46.3369C44.4302 46.3369 44.8435 46.2303 45.1369 46.0169C45.4435 45.8036 45.5969 45.5303 45.5969 45.1969C45.5969 44.8369 45.4102 44.5703 45.0369 44.3969C44.6769 44.2103 44.0969 44.0103 43.2969 43.7969C42.4702 43.5969 41.7902 43.3903 41.2569 43.1769C40.7369 42.9636 40.2835 42.6369 39.8969 42.1969C39.5235 41.7569 39.3369 41.1636 39.3369 40.4169C39.3369 39.8036 39.5102 39.2436 39.8569 38.7369C40.2169 38.2303 40.7235 37.8303 41.3769 37.5369C42.0435 37.2436 42.8235 37.0969 43.7169 37.0969C45.0369 37.0969 46.0902 37.4303 46.8769 38.0969C47.6635 38.7503 48.0969 39.6369 48.1769 40.7569H45.4969C45.4569 40.3169 45.2702 39.9703 44.9369 39.7169C44.6169 39.4503 44.1835 39.3169 43.6369 39.3169C43.1302 39.3169 42.7369 39.4103 42.4569 39.5969C42.1902 39.7836 42.0569 40.0436 42.0569 40.3769C42.0569 40.7503 42.2435 41.0369 42.6169 41.2369C42.9902 41.4236 43.5702 41.6169 44.3569 41.8169C45.1569 42.0169 45.8169 42.2236 46.3369 42.4369C46.8569 42.6503 47.3035 42.9836 47.6769 43.4369C48.0635 43.8769 48.2635 44.4636 48.2769 45.1969C48.2769 45.8369 48.0969 46.4103 47.7369 46.9169C47.3902 47.4236 46.8835 47.8236 46.2169 48.1169C45.5635 48.3969 44.7969 48.5369 43.9169 48.5369ZM53.8353 39.5769V44.9369C53.8353 45.3103 53.922 45.5836 54.0953 45.7569C54.282 45.9169 54.5886 45.9969 55.0153 45.9969H56.3153V48.3569H54.5553C52.1953 48.3569 51.0153 47.2103 51.0153 44.9169V39.5769H49.6953V37.2769H51.0153V34.5369H53.8353V37.2769H56.3153V39.5769H53.8353Z" fill="#565656"/>
<defs>
<filter id="filter0_d_1465_1355" x="0.164978" y="0.660645" width="87.6702" height="87.6006" filterUnits="userSpaceOnUse" color-interpolation-filters="sRGB">
<feFlood flood-opacity="0" result="BackgroundImageFix"/>
<feColorMatrix in="SourceAlpha" type="matrix" values="0 0 0 0 0 0 0 0 0 0 0 0 0 0 0 0 0 0 127 0" result="hardAlpha"/>
<feOffset dy="4"/>
<feGaussianBlur stdDeviation="5"/>
<feComposite in2="hardAlpha" operator="out"/>
<feColorMatrix type="matrix" values="0 0 0 0 0 0 0 0 0 0 0 0 0 0 0 0 0 0 0.2 0"/>
<feBlend mode="normal" in2="BackgroundImageFix" result="effect1_dropShadow_1465_1355"/>
<feBlend mode="normal" in="SourceGraphic" in2="effect1_dropShadow_1465_1355" result="shape"/>
</filter>
</defs>
</svg>
