<svg width="68" height="68" viewBox="0 0 68 68" fill="none" xmlns="http://www.w3.org/2000/svg">
<g filter="url(#filter0_d_1465_1360)">
<path d="M33.0487 7.00085C33.3442 6.07115 34.6598 6.07135 34.9549 7.00113L38.1204 16.9732C38.3191 17.5992 39.0571 17.867 39.611 17.5139L48.3506 11.9434C49.17 11.4211 50.1776 12.2564 49.8164 13.1585L45.9074 22.92C45.6661 23.5225 46.0537 24.1916 46.6964 24.282L56.9739 25.728C57.9311 25.8627 58.1592 27.1421 57.3076 27.5993L48.1155 32.5345C47.546 32.8402 47.4118 33.5978 47.8417 34.0805L54.8175 41.9148C55.4617 42.6383 54.8038 43.7634 53.8573 43.5568L43.7467 41.3495C43.1085 41.2102 42.5103 41.7101 42.534 42.3629L42.9162 52.8655C42.9516 53.8392 41.7154 54.2834 41.1229 53.5099L34.796 45.2494C34.3958 44.7269 33.6087 44.7268 33.2083 45.2492L26.8779 53.5101C26.2852 54.2835 25.0491 53.8389 25.0848 52.8652L25.4701 42.3632C25.494 41.7104 24.8958 41.2102 24.2575 41.3495L14.1424 43.5571C13.196 43.7636 12.5381 42.6385 13.1823 41.915L20.1583 34.0805C20.5881 33.5978 20.454 32.8402 19.8845 32.5345L10.6926 27.5994C9.84097 27.1422 10.0692 25.8627 11.0264 25.7281L21.3081 24.282C21.9508 24.1916 22.3384 23.5224 22.0971 22.92L18.1885 13.1593C17.8272 12.2571 18.835 11.4219 19.6544 11.9443L28.3893 17.5138C28.943 17.8669 29.681 17.5994 29.8799 16.9735L33.0487 7.00085Z" fill="#FEC606"/>
</g>
<path d="M23.0054 28.482C23.052 27.5487 23.3787 26.83 23.9854 26.326C24.6014 25.8127 25.4087 25.556 26.4074 25.556C27.0887 25.556 27.672 25.6773 28.1574 25.92C28.6427 26.1533 29.0067 26.4753 29.2494 26.886C29.5014 27.2873 29.6274 27.7447 29.6274 28.258C29.6274 28.846 29.4734 29.3453 29.1654 29.756C28.8667 30.1573 28.5074 30.428 28.0874 30.568V30.624C28.6287 30.792 29.0487 31.0907 29.3474 31.52C29.6554 31.9493 29.8094 32.5 29.8094 33.172C29.8094 33.732 29.6787 34.2313 29.4174 34.67C29.1654 35.1087 28.7874 35.454 28.2834 35.706C27.7887 35.9487 27.1914 36.07 26.4914 36.07C25.4367 36.07 24.578 35.804 23.9154 35.272C23.2527 34.74 22.9027 33.956 22.8654 32.92H24.7694C24.788 33.3773 24.942 33.746 25.2314 34.026C25.53 34.2967 25.936 34.432 26.4494 34.432C26.9254 34.432 27.2894 34.3013 27.5414 34.04C27.8027 33.7693 27.9334 33.424 27.9334 33.004C27.9334 32.444 27.756 32.0427 27.4014 31.8C27.0467 31.5573 26.496 31.436 25.7494 31.436H25.3434V29.826H25.7494C27.0747 29.826 27.7374 29.3827 27.7374 28.496C27.7374 28.0947 27.616 27.782 27.3734 27.558C27.14 27.334 26.7994 27.222 26.3514 27.222C25.9127 27.222 25.572 27.3433 25.3294 27.586C25.096 27.8193 24.9607 28.118 24.9234 28.482H23.0054ZM33.5422 29.448C33.7942 29.0373 34.1209 28.7153 34.5222 28.482C34.9329 28.2487 35.3995 28.132 35.9222 28.132V30.19H35.4042C34.7882 30.19 34.3215 30.3347 34.0042 30.624C33.6962 30.9133 33.5422 31.4173 33.5422 32.136V36H31.5822V28.244H33.5422V29.448ZM36.7384 32.094C36.7384 31.31 36.8924 30.6147 37.2004 30.008C37.5177 29.4013 37.947 28.9347 38.4884 28.608C39.0297 28.2813 39.6317 28.118 40.2944 28.118C40.7984 28.118 41.279 28.23 41.7364 28.454C42.1937 28.6687 42.5577 28.958 42.8284 29.322V25.64H44.8164V36H42.8284V34.852C42.5857 35.2347 42.245 35.5427 41.8064 35.776C41.3677 36.0093 40.859 36.126 40.2804 36.126C39.627 36.126 39.0297 35.958 38.4884 35.622C37.947 35.286 37.5177 34.8147 37.2004 34.208C36.8924 33.592 36.7384 32.8873 36.7384 32.094ZM42.8424 32.122C42.8424 31.646 42.749 31.24 42.5624 30.904C42.3757 30.5587 42.1237 30.2973 41.8064 30.12C41.489 29.9333 41.1484 29.84 40.7844 29.84C40.4204 29.84 40.0844 29.9287 39.7764 30.106C39.4684 30.2833 39.2164 30.5447 39.0204 30.89C38.8337 31.226 38.7404 31.6273 38.7404 32.094C38.7404 32.5607 38.8337 32.9713 39.0204 33.326C39.2164 33.6713 39.4684 33.9373 39.7764 34.124C40.0937 34.3107 40.4297 34.404 40.7844 34.404C41.1484 34.404 41.489 34.3153 41.8064 34.138C42.1237 33.9513 42.3757 33.69 42.5624 33.354C42.749 33.0087 42.8424 32.598 42.8424 32.122Z" fill="#565656"/>
<defs>
<filter id="filter0_d_1465_1360" x="0.164978" y="0.303711" width="67.6702" height="67.6006" filterUnits="userSpaceOnUse" color-interpolation-filters="sRGB">
<feFlood flood-opacity="0" result="BackgroundImageFix"/>
<feColorMatrix in="SourceAlpha" type="matrix" values="0 0 0 0 0 0 0 0 0 0 0 0 0 0 0 0 0 0 127 0" result="hardAlpha"/>
<feOffset dy="4"/>
<feGaussianBlur stdDeviation="5"/>
<feComposite in2="hardAlpha" operator="out"/>
<feColorMatrix type="matrix" values="0 0 0 0 0 0 0 0 0 0 0 0 0 0 0 0 0 0 0.2 0"/>
<feBlend mode="normal" in2="BackgroundImageFix" result="effect1_dropShadow_1465_1360"/>
<feBlend mode="normal" in="SourceGraphic" in2="effect1_dropShadow_1465_1360" result="shape"/>
</filter>
</defs>
</svg>
