<svg width="68" height="68" viewBox="0 0 68 68" fill="none" xmlns="http://www.w3.org/2000/svg">
<g filter="url(#filter0_d_1465_1350)">
<path d="M33.0487 7.00085C33.3442 6.07115 34.6598 6.07135 34.9549 7.00113L38.1204 16.9732C38.3191 17.5992 39.0571 17.867 39.611 17.5139L48.3506 11.9434C49.17 11.4211 50.1776 12.2564 49.8164 13.1585L45.9074 22.92C45.6661 23.5225 46.0537 24.1916 46.6964 24.282L56.9739 25.728C57.9311 25.8627 58.1592 27.1421 57.3076 27.5993L48.1155 32.5345C47.546 32.8402 47.4118 33.5978 47.8417 34.0805L54.8175 41.9148C55.4617 42.6383 54.8038 43.7634 53.8573 43.5568L43.7467 41.3495C43.1085 41.2102 42.5103 41.7101 42.534 42.3629L42.9162 52.8655C42.9516 53.8392 41.7154 54.2834 41.1229 53.5099L34.796 45.2494C34.3958 44.7269 33.6087 44.7268 33.2083 45.2492L26.8779 53.5101C26.2852 54.2835 25.0491 53.8389 25.0848 52.8652L25.4701 42.3632C25.494 41.7104 24.8958 41.2102 24.2575 41.3495L14.1424 43.5571C13.196 43.7636 12.5381 42.6385 13.1823 41.915L20.1583 34.0805C20.5881 33.5978 20.454 32.8402 19.8845 32.5345L10.6926 27.5994C9.84097 27.1422 10.0692 25.8627 11.0264 25.7281L21.3081 24.282C21.9508 24.1916 22.3384 23.5224 22.0971 22.92L18.1885 13.1593C17.8272 12.2571 18.835 11.4219 19.6544 11.9443L28.3893 17.5138C28.943 17.8669 29.681 17.5994 29.8799 16.9735L33.0487 7.00085Z" fill="#FEC606"/>
</g>
<path d="M21.4664 34.788C22.3624 34.0413 23.0764 33.4207 23.6084 32.926C24.1404 32.422 24.5837 31.8993 24.9384 31.358C25.2931 30.8167 25.4704 30.2847 25.4704 29.762C25.4704 29.286 25.3584 28.9127 25.1344 28.642C24.9104 28.3713 24.5651 28.236 24.0984 28.236C23.6317 28.236 23.2724 28.3947 23.0204 28.712C22.7684 29.02 22.6377 29.4447 22.6284 29.986H20.7244C20.7617 28.866 21.0931 28.0167 21.7184 27.438C22.3531 26.8593 23.1557 26.57 24.1264 26.57C25.1904 26.57 26.0071 26.8547 26.5764 27.424C27.1457 27.984 27.4304 28.726 27.4304 29.65C27.4304 30.378 27.2344 31.0733 26.8424 31.736C26.4504 32.3987 26.0024 32.9773 25.4984 33.472C24.9944 33.9573 24.3364 34.5453 23.5244 35.236H27.6544V36.86H20.7384V35.404L21.4664 34.788ZM33.4115 29.132C34.3355 29.132 35.0821 29.426 35.6515 30.014C36.2208 30.5927 36.5055 31.4047 36.5055 32.45V37H34.5455V32.716C34.5455 32.1 34.3915 31.6287 34.0835 31.302C33.7755 30.966 33.3555 30.798 32.8235 30.798C32.2821 30.798 31.8528 30.966 31.5355 31.302C31.2275 31.6287 31.0735 32.1 31.0735 32.716V37H29.1135V29.244H31.0735V30.21C31.3348 29.874 31.6661 29.6127 32.0675 29.426C32.4781 29.23 32.9261 29.132 33.4115 29.132ZM37.8653 33.094C37.8653 32.31 38.0193 31.6147 38.3273 31.008C38.6447 30.4013 39.074 29.9347 39.6153 29.608C40.1567 29.2813 40.7587 29.118 41.4213 29.118C41.9253 29.118 42.406 29.23 42.8633 29.454C43.3207 29.6687 43.6847 29.958 43.9553 30.322V26.64H45.9433V37H43.9553V35.852C43.7127 36.2347 43.372 36.5427 42.9333 36.776C42.4947 37.0093 41.986 37.126 41.4073 37.126C40.754 37.126 40.1567 36.958 39.6153 36.622C39.074 36.286 38.6447 35.8147 38.3273 35.208C38.0193 34.592 37.8653 33.8873 37.8653 33.094ZM43.9693 33.122C43.9693 32.646 43.876 32.24 43.6893 31.904C43.5027 31.5587 43.2507 31.2973 42.9333 31.12C42.616 30.9333 42.2753 30.84 41.9113 30.84C41.5473 30.84 41.2113 30.9287 40.9033 31.106C40.5953 31.2833 40.3433 31.5447 40.1473 31.89C39.9607 32.226 39.8673 32.6273 39.8673 33.094C39.8673 33.5607 39.9607 33.9713 40.1473 34.326C40.3433 34.6713 40.5953 34.9373 40.9033 35.124C41.2207 35.3107 41.5567 35.404 41.9113 35.404C42.2753 35.404 42.616 35.3153 42.9333 35.138C43.2507 34.9513 43.5027 34.69 43.6893 34.354C43.876 34.0087 43.9693 33.598 43.9693 33.122Z" fill="#565656"/>
<defs>
<filter id="filter0_d_1465_1350" x="0.164917" y="0.303711" width="67.6703" height="67.6006" filterUnits="userSpaceOnUse" color-interpolation-filters="sRGB">
<feFlood flood-opacity="0" result="BackgroundImageFix"/>
<feColorMatrix in="SourceAlpha" type="matrix" values="0 0 0 0 0 0 0 0 0 0 0 0 0 0 0 0 0 0 127 0" result="hardAlpha"/>
<feOffset dy="4"/>
<feGaussianBlur stdDeviation="5"/>
<feComposite in2="hardAlpha" operator="out"/>
<feColorMatrix type="matrix" values="0 0 0 0 0 0 0 0 0 0 0 0 0 0 0 0 0 0 0.2 0"/>
<feBlend mode="normal" in2="BackgroundImageFix" result="effect1_dropShadow_1465_1350"/>
<feBlend mode="normal" in="SourceGraphic" in2="effect1_dropShadow_1465_1350" result="shape"/>
</filter>
</defs>
</svg>
