<svg xmlns="http://www.w3.org/2000/svg" width="68" height="68" viewBox="0 0 68 68" fill="none">
  <g filter="url(#filter0_d_1465_1361)">
    <text x="0" y="0" font-family="Arial" font-size="20" fill="white">2nd</text>
    <path d="M33.0487 7.00085C33.3442 6.07115 34.6598 6.07135 34.9549 7.00113L38.1204 16.9732C38.3191 17.5992 39.0571 17.867 39.611 17.5139L48.3506 11.9434C49.17 11.4211 50.1776 12.2564 49.8164 13.1585L45.9074 22.92C45.6661 23.5225 46.0537 24.1916 46.6964 24.282L56.9739 25.728C57.9311 25.8627 58.1592 27.1421 57.3076 27.5993L48.1155 32.5345C47.546 32.8402 47.4118 33.5978 47.8417 34.0805L54.8175 41.9148C55.4617 42.6383 54.8038 43.7634 53.8573 43.5568L43.7467 41.3495C43.1085 41.2102 42.5103 41.7101 42.534 42.3629L42.9162 52.8655C42.9516 53.8392 41.7154 54.2834 41.1229 53.5099L34.796 45.2494C34.3958 44.7269 33.6087 44.7268 33.2083 45.2492L26.8779 53.5101C26.2852 54.2835 25.0491 53.8389 25.0848 52.8652L25.4701 42.3632C25.494 41.7104 24.8958 41.2102 24.2575 41.3495L14.1424 43.5571C13.196 43.7636 12.5381 42.6385 13.1823 41.915L20.1583 34.0805C20.5881 33.5978 20.454 32.8402 19.8845 32.5345L10.6926 27.5994C9.84097 27.1422 10.0692 25.8627 11.0264 25.7281L21.3081 24.282C21.9508 24.1916 22.3384 23.5224 22.0971 22.92L18.1885 13.1593C17.8272 12.2571 18.835 11.4219 19.6544 11.9443L28.3893 17.5138C28.943 17.8669 29.681 17.5994 29.8799 16.9735L33.0487 7.00085Z" fill="#FEC606"/>
  </g>
  <defs>
    <filter id="filter0_d_1465_1361" x="0.164978" y="0.303711" width="67.6702" height="67.6006" filterUnits="userSpaceOnUse" color-interpolation-filters="sRGB">
      <feFlood flood-opacity="0" result="BackgroundImageFix"/>
      <feColorMatrix in="SourceAlpha" type="matrix" values="0 0 0 0 0 0 0 0 0 0 0 0 0 0 0 0 0 0 127 0" result="hardAlpha"/>
      <feOffset dy="4"/>
      <feGaussianBlur stdDeviation="5"/>
      <feComposite in2="hardAlpha" operator="out"/>
      <feColorMatrix type="matrix" values="0 0 0 0 0 0 0 0 0 0 0 0 0 0 0 0 0 0 0.2 0"/>
      <feBlend mode="normal" in2="BackgroundImageFix" result="effect1_dropShadow_1465_1361"/>
      <feBlend mode="normal" in="SourceGraphic" in2="effect1_dropShadow_1465_1361" result="shape"/>
    </filter>
  </defs>
</svg>