<svg width="162" height="32" viewBox="0 0 162 32" fill="none" xmlns="http://www.w3.org/2000/svg">
<path d="M15.0479 3.00085C15.3433 2.07115 16.6589 2.07134 16.9541 3.00113L18.3842 7.50661C18.583 8.13264 19.321 8.40036 19.8748 8.04733L23.8229 5.53093C24.6423 5.00864 25.6499 5.84387 25.2887 6.74595L23.51 11.1876C23.2687 11.7901 23.6564 12.4592 24.299 12.5496L28.9739 13.2073C29.9311 13.342 30.1592 14.6214 29.3076 15.0786L25.1159 17.3291C24.5465 17.6348 24.4123 18.3924 24.8421 18.8751L28.0236 22.4482C28.6678 23.1717 28.0099 24.2968 27.0635 24.0902L22.4824 23.0901C21.8442 22.9508 21.246 23.4507 21.2697 24.1034L21.443 28.8654C21.4784 29.8392 20.2423 30.2834 19.6498 29.5099L16.7951 25.7828C16.3949 25.2603 15.6078 25.2602 15.2075 25.7826L12.351 29.5101C11.7583 30.2835 10.5222 29.8389 10.558 28.8652L10.7326 24.1037C10.7566 23.4509 10.1584 22.9508 9.5201 23.0901L4.93619 24.0905C3.9898 24.297 3.33197 23.1719 3.97613 22.4485L7.15788 18.8751C7.58771 18.3924 7.45354 17.6348 6.88406 17.3291L2.69261 15.0787C1.84097 14.6215 2.06916 13.3421 3.02635 13.2074L7.7037 12.5496C8.34637 12.4592 8.73402 11.79 8.49276 11.1875L6.71444 6.74676C6.35317 5.84461 7.36099 5.00936 8.1804 5.53183L12.1254 8.04724C12.6792 8.40033 13.4172 8.13281 13.6161 7.50688L15.0479 3.00085Z" fill="#9001FF"/>
<path d="M82.022 29.7913L81.9707 15.6399L72.8775 26.4843L81.9365 15.6106L68 18.0701L81.9292 15.5642L69.6706 8.49091L81.9512 15.5251L77.1078 2.22608L81.9951 15.5105L86.8311 2.20898L82.0366 15.5251L94.2927 8.44695L82.0611 15.5642L96 18.0188L82.0537 15.6106L91.1518 26.4501L82.0171 15.6399L82.022 29.7913Z" fill="white" stroke="#FD01A8" stroke-width="3" stroke-miterlimit="10" stroke-linecap="round" stroke-linejoin="round"/>
<path d="M152.051 14.9899C149.828 14.9899 148.01 13.1717 148.01 10.9495V1.84175C148.01 1.37687 147.633 1 147.168 1C146.703 1 146.327 1.37686 146.327 1.84175V10.9495C146.327 13.1717 144.508 14.9899 142.286 14.9899H133C132.448 14.9899 132 15.4376 132 15.9899V16.0101C132 16.5624 132.448 17.0101 133 17.0101H142.286C144.508 17.0101 146.327 18.8283 146.327 21.0505V30.1582C146.327 30.6231 146.703 31 147.168 31C147.633 31 148.01 30.6231 148.01 30.1582V21.0505C148.01 18.8283 149.828 17.0101 152.051 17.0101H161C161.552 17.0101 162 16.5624 162 16.0101V15.9899C162 15.4376 161.552 14.9899 161 14.9899H152.051Z" fill="#A2EF05"/>
</svg>
