<svg width="60" height="61" viewBox="0 0 60 61" fill="none" xmlns="http://www.w3.org/2000/svg">
<g id="Vector" filter="url(#filter0_d_1465_1428)">
<path d="M29.0484 7.42859C29.3438 6.49889 30.6594 6.49908 30.9546 7.42887L33.4259 15.2143C33.6246 15.8403 34.3627 16.108 34.9165 15.755L41.7395 11.4062C42.5589 10.8839 43.5665 11.7191 43.2053 12.6212L40.1484 20.2548C39.9072 20.8573 40.2948 21.5264 40.9374 21.6168L48.9739 22.7475C49.931 22.8821 50.1592 24.1615 49.3076 24.6188L42.1157 28.48C41.5462 28.7858 41.412 29.5434 41.8419 30.0261L47.2999 36.1559C47.9441 36.8794 47.2862 38.0045 46.3398 37.7979L38.4409 36.0735C37.8028 35.9342 37.2046 36.4341 37.2283 37.0868L37.5269 45.2932C37.5623 46.2669 36.3261 46.7111 35.7337 45.9376L30.7956 39.4905C30.3954 38.968 29.6083 38.9679 29.208 39.4903L24.2671 45.9378C23.6745 46.7112 22.4383 46.2666 22.4741 45.2929L22.7751 37.0871C22.7991 36.4343 22.2008 35.9342 21.5626 36.0735L13.6599 37.7981C12.7135 38.0047 12.0557 36.8796 12.6998 36.1561L18.1581 30.0261C18.588 29.5434 18.4538 28.7858 17.8843 28.48L10.6926 24.6189C9.84097 24.1616 10.0692 22.8822 11.0264 22.7476L19.0663 21.6167C19.709 21.5263 20.0967 20.8572 19.8554 20.2547L16.7989 12.622C16.4376 11.7198 17.4454 10.8846 18.2648 11.4071L25.0837 15.7549C25.6375 16.108 26.3755 15.8405 26.5744 15.2146L29.0484 7.42859Z" fill="#BABABA"/>
</g>
<defs>
<filter id="filter0_d_1465_1428" x="0.164978" y="0.731445" width="59.6702" height="59.6003" filterUnits="userSpaceOnUse" color-interpolation-filters="sRGB">
<feFlood flood-opacity="0" result="BackgroundImageFix"/>
<feColorMatrix in="SourceAlpha" type="matrix" values="0 0 0 0 0 0 0 0 0 0 0 0 0 0 0 0 0 0 127 0" result="hardAlpha"/>
<feOffset dy="4"/>
<feGaussianBlur stdDeviation="5"/>
<feComposite in2="hardAlpha" operator="out"/>
<feColorMatrix type="matrix" values="0 0 0 0 0 0 0 0 0 0 0 0 0 0 0 0 0 0 0.2 0"/>
<feBlend mode="normal" in2="BackgroundImageFix" result="effect1_dropShadow_1465_1428"/>
<feBlend mode="normal" in="SourceGraphic" in2="effect1_dropShadow_1465_1428" result="shape"/>
</filter>
</defs>
</svg>
